<?xml version="1.0" encoding="utf-8"?>
<!-- Generator: Adobe Illustrator 16.0.0, SVG Export Plug-In . SVG Version: 6.00 Build 0)  -->
<!DOCTYPE svg PUBLIC "-//W3C//DTD SVG 1.1//EN" "http://www.w3.org/Graphics/SVG/1.1/DTD/svg11.dtd">
<svg version="1.1" xmlns="http://www.w3.org/2000/svg" xmlns:xlink="http://www.w3.org/1999/xlink" x="0px" y="0px" width="1000px"
	 height="480px" viewBox="0 0 1000 480" enable-background="new 0 0 1000 480" xml:space="preserve">
<g id="Layer_1" display="none">
	<rect display="inline" fill="#231F20" width="1000" height="480"/>
</g>
<g id="Layer_2">
	<g>
		<g>
			<g>
				<g>
					<path fill="#91DC5A" d="M138.708,206.788l31.832,18.234l0.122,36.689l-31.709,18.446l-31.831-18.236L107,225.235
						L138.708,206.788 M138.693,202.508l-35.407,20.6l0.137,40.968l35.544,20.363l35.409-20.602l-0.137-40.965L138.693,202.508
						L138.693,202.508z"/>
					<polygon fill="#91DC5A" points="140.831,203.709 136.83,203.709 138.497,165.625 139.164,165.625 					"/>
					<polygon fill="#91DC5A" points="140.831,282.88 136.83,282.88 138.497,320.963 139.164,320.963 					"/>
					<g>
						<polygon fill="#91DC5A" points="103.546,261.356 105.547,264.823 71.734,282.418 71.4,281.841 						"/>
					</g>
					<g>
						<polygon fill="#91DC5A" points="172.114,264.823 174.115,261.356 206.261,281.841 205.928,282.418 						"/>
						<polygon fill="#91DC5A" points="103.546,225.232 105.547,221.767 71.734,204.169 71.4,204.748 						"/>
					</g>
					<g>
						<polygon fill="#91DC5A" points="73.14,322.698 69.139,322.698 70.806,284.615 71.474,284.615 						"/>
						<polygon fill="#91DC5A" points="69.139,322.654 71.141,319.188 103.286,339.674 102.953,340.251 						"/>
					</g>
				</g>
				<g>
					<path fill="#3DA4D8" d="M281.822,206.966l31.832,18.234l0.122,36.689l-31.708,18.446L250.235,262.1l-0.122-36.687
						L281.822,206.966 M281.807,202.685l-35.407,20.602l0.137,40.966l35.544,20.363l35.409-20.601l-0.137-40.965L281.807,202.685
						L281.807,202.685z"/>
					<polygon fill="#3DA4D8" points="283.944,203.886 279.943,203.886 281.61,165.803 282.277,165.803 					"/>
					<polygon fill="#3DA4D8" points="283.944,283.058 279.943,283.058 281.61,321.141 282.277,321.141 					"/>
					<polygon fill="#3DA4D8" points="246.659,261.534 248.66,265.001 214.847,282.596 214.514,282.019 					"/>
					<polygon fill="#3DA4D8" points="315.227,221.943 317.228,225.41 349.374,204.929 349.041,204.347 					"/>
					<polygon fill="#3DA4D8" points="315.227,265.001 317.229,261.534 349.374,282.019 349.041,282.596 					"/>
					<polygon fill="#3DA4D8" points="246.66,225.41 248.661,221.943 214.847,204.347 214.514,204.927 					"/>
				</g>
				<g>
					<polygon fill="#FFD500" points="211.299,159.553 207.298,159.553 208.965,197.636 209.633,197.636 					"/>
					<g>
						<polygon fill="#FFD500" points="251.798,143.683 247.797,143.683 249.464,105.6 250.131,105.6 						"/>
						<polygon fill="#FFD500" points="247.797,143.639 249.798,140.172 281.943,160.657 281.61,161.234 						"/>
					</g>
					<g>
						<polygon fill="#FFD500" points="316.33,103.654 318.331,100.19 284.524,82.578 284.19,83.156 						"/>
						<polygon fill="#FFD500" points="318.293,100.169 314.291,100.167 315.942,138.249 316.609,138.249 						"/>
					</g>
					<polygon fill="#FFD500" points="211.724,91.875 206.874,91.875 208.895,45.707 209.703,45.707 					"/>
					<path fill="#FFD500" d="M209.189,92.686l28.562,16.362l0.109,32.918l-28.451,16.552l-28.562-16.363l-0.109-32.916
						L209.189,92.686 M209.176,88.845l-31.771,18.485l0.123,36.755l31.894,18.273l31.77-18.483l-0.122-36.758L209.176,88.845
						L209.176,88.845z"/>
				</g>
				<g>
					<g>
						<polygon fill="#F05916" points="212.294,325.735 208.293,325.735 209.96,285.217 210.628,285.217 						"/>
						<polygon fill="#F05916" points="212.294,396.21 208.293,396.21 209.96,434.293 210.628,434.293 						"/>
						<path fill="#F05916" d="M210.176,325.533l30.487,17.466l0.117,35.137l-30.368,17.667l-30.487-17.466l-0.117-35.134
							L210.176,325.533 M210.163,321.436l-33.912,19.729l0.13,39.232l34.043,19.504l33.912-19.728l-0.131-39.235L210.163,321.436
							L210.163,321.436z"/>
					</g>
				</g>
				<g>
					<g>
						<polygon fill="#FF8800" points="73.4,164.424 69.399,164.424 71.067,202.508 71.734,202.508 						"/>
						<polygon fill="#FF8800" points="69.399,164.439 71.401,167.906 103.547,147.424 103.214,146.842 						"/>
					</g>
					<polygon fill="#FF8800" points="6.011,164.308 2.099,164.308 3.729,201.542 4.381,201.542 					"/>
					<polygon fill="#FF8800" points="36.598,104.554 38.554,107.942 69.985,87.913 69.659,87.349 					"/>
					<polygon fill="#FF8800" points="36.598,146.648 38.554,143.261 69.985,163.288 69.659,163.854 					"/>
					<polygon fill="#FF8800" points="38.676,103.529 35.059,105.634 35.179,143.606 4.176,161.645 1.959,162.848 2.099,164.633 
						4.189,165.83 38.809,145.687 					"/>
				</g>
			</g>
			<g>
				<g>
					<path opacity="0.2" fill-rule="evenodd" clip-rule="evenodd" fill="#1A1A1A" d="M941.387,238.22v129.446
						c0,2.823-2.311,5.128-5.129,5.128H826.344V219.963h87.941v-2.611h-87.941v-94.384h128.467c6.916,0,10.467,2.979,7.883,12.62
						l-21.908,81.764h-15.262v2.611h10.734c2.82,0,5.129,2.31,5.129,5.129v10.483 M826.344,372.794H716.43
						c-2.818,0-5.125-2.305-5.125-5.128V225.092c0-2.819,2.307-5.129,5.125-5.129h10.736v-2.611h-15.861l-20.76-80.501
						c-3.039-11.795-1.143-13.883,6.725-13.883h129.074v94.384h-87.941v2.611h87.941V372.794z"/>
					<g>
						<path fill-rule="evenodd" clip-rule="evenodd" fill="#CCCCCC" d="M685.818,113.159h257.539c6.916,0,10.471,2.981,7.887,12.624
							l-21.91,81.763h-229.48l-20.762-80.505C676.055,115.248,677.953,113.159,685.818,113.159z"/>
					</g>
					<path fill-rule="evenodd" clip-rule="evenodd" fill="#FFFFFF" d="M684.313,115.149h261.371c1.676,0,3.047,1.371,3.047,3.048
						l0,0c0,1.679-1.371,3.046-3.047,3.046H684.313c-1.676,0-3.049-1.367-3.049-3.046l0,0
						C681.264,116.521,682.637,115.149,684.313,115.149z"/>
					<g>
						<path fill-rule="evenodd" clip-rule="evenodd" fill="#FFFFFF" d="M704.98,210.158h219.828c2.82,0,5.123,2.31,5.123,5.125
							v142.583c0,2.813-2.303,5.125-5.123,5.125H704.98c-2.822,0-5.127-2.31-5.127-5.125V215.283
							C699.854,212.464,702.158,210.158,704.98,210.158z"/>
						<path fill-rule="evenodd" clip-rule="evenodd" fill="#B3B3B3" d="M714.965,210.158h12.744v7.28
							c0,0.657-0.537,1.198-1.199,1.198h-10.35c-0.656,0-1.195-0.541-1.195-1.198V210.158z"/>
						<path fill-rule="evenodd" clip-rule="evenodd" fill="#B3B3B3" d="M902.082,210.158h12.744v7.28
							c0,0.657-0.539,1.198-1.199,1.198h-10.348c-0.66,0-1.197-0.541-1.197-1.198V210.158z"/>
						<polygon fill-rule="evenodd" clip-rule="evenodd" fill="#1E4B73" points="937.838,134.067 921.904,196.537 707.465,196.537 
							691.367,134.067 						"/>
						<path fill-rule="evenodd" clip-rule="evenodd" fill="#FFFFFF" d="M716.773,203.554h9.123c0.582,0,1.057,0.474,1.057,1.056
							v10.782c0,0.583-0.475,1.057-1.057,1.057h-9.123c-0.584,0-1.057-0.474-1.057-1.057v-10.782
							C715.717,204.027,716.189,203.554,716.773,203.554z"/>
						<path fill-rule="evenodd" clip-rule="evenodd" fill="#FFFFFF" d="M903.891,203.554h9.125c0.582,0,1.057,0.474,1.057,1.056
							v10.782c0,0.583-0.475,1.057-1.057,1.057h-9.125c-0.58,0-1.057-0.474-1.057-1.057v-10.782
							C902.834,204.027,903.311,203.554,903.891,203.554z"/>
						<g>
							<path fill-rule="evenodd" clip-rule="evenodd" fill="#CCCCCC" d="M907.545,230.525h7.102c0.805,0,1.467,0.661,1.467,1.468
								v5.275c0,0.806-0.662,1.468-1.467,1.468h-7.102c-0.807,0-1.467-0.662-1.467-1.468v-5.275
								C906.078,231.187,906.738,230.525,907.545,230.525z"/>
							<path fill-rule="evenodd" clip-rule="evenodd" fill="#CCCCCC" d="M907.871,240.592h6.449c0.982,0,1.793,0.806,1.793,1.792
								v7.146c0,0.985-0.811,1.79-1.793,1.79h-6.449c-0.986,0-1.793-0.805-1.793-1.79v-7.146
								C906.078,241.397,906.885,240.592,907.871,240.592z"/>
							<path fill-rule="evenodd" clip-rule="evenodd" fill="#CCCCCC" d="M907.871,253.178h6.449c0.982,0,1.793,0.808,1.793,1.792
								v7.146c0,0.985-0.811,1.793-1.793,1.793h-6.449c-0.986,0-1.793-0.808-1.793-1.793v-7.146
								C906.078,253.985,906.885,253.178,907.871,253.178z"/>
							<path fill-rule="evenodd" clip-rule="evenodd" fill="#CCCCCC" d="M907.871,265.765h6.449c0.982,0,1.793,0.807,1.793,1.792
								v7.146c0,0.99-0.811,1.793-1.793,1.793h-6.449c-0.986,0-1.793-0.803-1.793-1.793v-7.146
								C906.078,266.571,906.885,265.765,907.871,265.765z"/>
							<path fill-rule="evenodd" clip-rule="evenodd" fill="#CCCCCC" d="M907.871,278.352h6.449c0.982,0,1.793,0.807,1.793,1.791
								v7.15c0,0.985-0.811,1.79-1.793,1.79h-6.449c-0.986,0-1.793-0.805-1.793-1.79v-7.15
								C906.078,279.158,906.885,278.352,907.871,278.352z"/>
							<path fill-rule="evenodd" clip-rule="evenodd" fill="#CCCCCC" d="M907.871,290.938h6.449c0.982,0,1.793,0.807,1.793,1.792
								v7.148c0,0.985-0.811,1.79-1.793,1.79h-6.449c-0.986,0-1.793-0.805-1.793-1.79v-7.148
								C906.078,291.745,906.885,290.938,907.871,290.938z"/>
							<path fill-rule="evenodd" clip-rule="evenodd" fill="#CCCCCC" d="M895.002,230.525h7.104c0.807,0,1.465,0.661,1.465,1.468
								v5.275c0,0.806-0.658,1.468-1.465,1.468h-7.104c-0.805,0-1.465-0.662-1.465-1.468v-5.275
								C893.537,231.187,894.197,230.525,895.002,230.525z"/>
							<path fill-rule="evenodd" clip-rule="evenodd" fill="#CCCCCC" d="M883.871,240.592h17.783c1.055,0,1.916,0.864,1.916,1.917
								v6.895c0,1.057-0.861,1.917-1.916,1.917h-17.783c-1.057,0-1.918-0.86-1.918-1.917v-6.895
								C881.953,241.456,882.814,240.592,883.871,240.592z"/>
							<path fill-rule="evenodd" clip-rule="evenodd" fill="#CCCCCC" d="M892.037,253.178h9.617c1.055,0,1.916,0.863,1.916,1.917
								v6.898c0,1.056-0.861,1.916-1.916,1.916h-9.617c-1.055,0-1.92-0.86-1.92-1.916v-6.898
								C890.117,254.041,890.982,253.178,892.037,253.178z"/>
							<path fill-rule="evenodd" clip-rule="evenodd" fill="#CCCCCC" d="M882.457,265.765h19.197c1.055,0,1.916,0.866,1.916,1.916
								v6.897c0,1.056-0.861,1.917-1.916,1.917h-19.197c-1.055,0-1.916-0.861-1.916-1.917v-6.897
								C880.541,266.631,881.402,265.765,882.457,265.765z"/>
							<path fill-rule="evenodd" clip-rule="evenodd" fill="#CCCCCC" d="M895.33,278.352h6.447c0.984,0,1.793,0.807,1.793,1.791
								v7.15c0,0.985-0.809,1.79-1.793,1.79h-6.447c-0.986,0-1.793-0.805-1.793-1.79v-7.15
								C893.537,279.158,894.344,278.352,895.33,278.352z"/>
							<path fill-rule="evenodd" clip-rule="evenodd" fill="#CCCCCC" d="M895.33,290.938h6.447c0.984,0,1.793,0.807,1.793,1.792
								v7.148c0,0.985-0.809,1.79-1.793,1.79h-6.447c-0.986,0-1.793-0.805-1.793-1.79v-7.148
								C893.537,291.745,894.344,290.938,895.33,290.938z"/>
							<path fill-rule="evenodd" clip-rule="evenodd" fill="#CCCCCC" d="M883.42,230.525h6.141c0.809,0,1.471,0.661,1.471,1.468
								v5.275c0,0.806-0.662,1.468-1.471,1.468h-6.141c-0.803,0-1.467-0.662-1.467-1.468v-5.275
								C881.953,231.187,882.617,230.525,883.42,230.525z"/>
							<path fill-rule="evenodd" clip-rule="evenodd" fill="#CCCCCC" d="M871.65,230.525h6.139c0.807,0,1.467,0.661,1.467,1.468
								v5.275c0,0.806-0.66,1.468-1.467,1.468h-6.139c-0.811,0-1.467-0.662-1.467-1.468v-5.275
								C870.184,231.187,870.84,230.525,871.65,230.525z"/>
							<path fill-rule="evenodd" clip-rule="evenodd" fill="#CCCCCC" d="M859.877,230.525h6.139c0.809,0,1.469,0.661,1.469,1.468
								v5.275c0,0.806-0.66,1.468-1.469,1.468h-6.139c-0.811,0-1.469-0.662-1.469-1.468v-5.275
								C858.408,231.187,859.066,230.525,859.877,230.525z"/>
							<path fill-rule="evenodd" clip-rule="evenodd" fill="#CCCCCC" d="M848.104,230.525h6.143c0.807,0,1.463,0.661,1.463,1.468
								v5.275c0,0.806-0.656,1.468-1.463,1.468h-6.143c-0.807,0-1.471-0.662-1.471-1.468v-5.275
								C846.633,231.187,847.297,230.525,848.104,230.525z"/>
							<path fill-rule="evenodd" clip-rule="evenodd" fill="#CCCCCC" d="M836.328,230.525h6.143c0.809,0,1.467,0.661,1.467,1.468
								v5.275c0,0.806-0.658,1.468-1.467,1.468h-6.143c-0.807,0-1.467-0.662-1.467-1.468v-5.275
								C834.861,231.187,835.521,230.525,836.328,230.525z"/>
							<path fill-rule="evenodd" clip-rule="evenodd" fill="#CCCCCC" d="M824.555,230.525h6.143c0.807,0,1.469,0.661,1.469,1.468
								v5.275c0,0.806-0.662,1.468-1.469,1.468h-6.143c-0.807,0-1.467-0.662-1.467-1.468v-5.275
								C823.088,231.187,823.748,230.525,824.555,230.525z"/>
							<path fill-rule="evenodd" clip-rule="evenodd" fill="#CCCCCC" d="M812.783,230.525h6.143c0.803,0,1.467,0.661,1.467,1.468
								v5.275c0,0.806-0.664,1.468-1.467,1.468h-6.143c-0.809,0-1.465-0.662-1.465-1.468v-5.275
								C811.318,231.187,811.975,230.525,812.783,230.525z"/>
							<path fill-rule="evenodd" clip-rule="evenodd" fill="#CCCCCC" d="M801.01,230.525h6.141c0.809,0,1.467,0.661,1.467,1.468
								v5.275c0,0.806-0.658,1.468-1.467,1.468h-6.141c-0.807,0-1.469-0.662-1.469-1.468v-5.275
								C799.541,231.187,800.203,230.525,801.01,230.525z"/>
							<path fill-rule="evenodd" clip-rule="evenodd" fill="#CCCCCC" d="M789.236,230.525h6.141c0.809,0,1.469,0.661,1.469,1.468
								v5.275c0,0.806-0.66,1.468-1.469,1.468h-6.141c-0.807,0-1.469-0.662-1.469-1.468v-5.275
								C787.768,231.187,788.43,230.525,789.236,230.525z"/>
							<path fill-rule="evenodd" clip-rule="evenodd" fill="#CCCCCC" d="M777.463,230.525h6.143c0.805,0,1.465,0.661,1.465,1.468
								v5.275c0,0.806-0.66,1.468-1.465,1.468h-6.143c-0.809,0-1.467-0.662-1.467-1.468v-5.275
								C775.996,231.187,776.654,230.525,777.463,230.525z"/>
							<path fill-rule="evenodd" clip-rule="evenodd" fill="#CCCCCC" d="M765.688,230.525h6.143c0.809,0,1.469,0.661,1.469,1.468
								v5.275c0,0.806-0.66,1.468-1.469,1.468h-6.143c-0.805,0-1.465-0.662-1.465-1.468v-5.275
								C764.223,231.187,764.883,230.525,765.688,230.525z"/>
							<path fill-rule="evenodd" clip-rule="evenodd" fill="#CCCCCC" d="M753.916,230.525h6.139c0.811,0,1.471,0.661,1.471,1.468
								v5.275c0,0.806-0.66,1.468-1.471,1.468h-6.139c-0.805,0-1.467-0.662-1.467-1.468v-5.275
								C752.449,231.187,753.111,230.525,753.916,230.525z"/>
							<path fill-rule="evenodd" clip-rule="evenodd" fill="#CCCCCC" d="M742.143,230.525h6.143c0.807,0,1.465,0.661,1.465,1.468
								v5.275c0,0.806-0.658,1.468-1.465,1.468h-6.143c-0.807,0-1.463-0.662-1.463-1.468v-5.275
								C740.68,231.187,741.336,230.525,742.143,230.525z"/>
							<path fill-rule="evenodd" clip-rule="evenodd" fill="#CCCCCC" d="M730.367,230.525h6.146c0.805,0,1.465,0.661,1.465,1.468
								v5.275c0,0.806-0.66,1.468-1.465,1.468h-6.146c-0.805,0-1.465-0.662-1.465-1.468v-5.275
								C728.902,231.187,729.563,230.525,730.367,230.525z"/>
							<path fill-rule="evenodd" clip-rule="evenodd" fill="#CCCCCC" d="M717.145,230.525h7.1c0.809,0,1.467,0.661,1.467,1.468
								v5.275c0,0.806-0.658,1.468-1.467,1.468h-7.1c-0.805,0-1.467-0.662-1.467-1.468v-5.275
								C715.678,231.187,716.34,230.525,717.145,230.525z"/>
							<path fill-rule="evenodd" clip-rule="evenodd" fill="#CCCCCC" d="M871.168,240.592h6.33c0.965,0,1.758,0.793,1.758,1.76
								v7.212c0,0.966-0.793,1.757-1.758,1.757h-6.33c-0.967,0-1.758-0.791-1.758-1.757v-7.212
								C869.41,241.385,870.201,240.592,871.168,240.592z"/>
							<path fill-rule="evenodd" clip-rule="evenodd" fill="#CCCCCC" d="M858.396,240.592h6.328c0.967,0,1.76,0.793,1.76,1.76v7.212
								c0,0.966-0.793,1.757-1.76,1.757h-6.328c-0.969,0-1.762-0.791-1.762-1.757v-7.212
								C856.635,241.385,857.428,240.592,858.396,240.592z"/>
							<path fill-rule="evenodd" clip-rule="evenodd" fill="#CCCCCC" d="M845.623,240.592h6.328c0.967,0,1.76,0.793,1.76,1.76v7.212
								c0,0.966-0.793,1.757-1.76,1.757h-6.328c-0.967,0-1.758-0.791-1.758-1.757v-7.212
								C843.865,241.385,844.656,240.592,845.623,240.592z"/>
							<path fill-rule="evenodd" clip-rule="evenodd" fill="#CCCCCC" d="M832.848,240.592h6.332c0.965,0,1.758,0.793,1.758,1.76
								v7.212c0,0.966-0.793,1.757-1.758,1.757h-6.332c-0.967,0-1.76-0.791-1.76-1.757v-7.212
								C831.088,241.385,831.881,240.592,832.848,240.592z"/>
							<path fill-rule="evenodd" clip-rule="evenodd" fill="#CCCCCC" d="M820.074,240.592h6.332c0.967,0,1.756,0.793,1.756,1.76
								v7.212c0,0.966-0.789,1.757-1.756,1.757h-6.332c-0.967,0-1.758-0.791-1.758-1.757v-7.212
								C818.316,241.385,819.107,240.592,820.074,240.592z"/>
							<path fill-rule="evenodd" clip-rule="evenodd" fill="#CCCCCC" d="M807.303,240.592h6.33c0.967,0,1.756,0.793,1.756,1.76
								v7.212c0,0.966-0.789,1.757-1.756,1.757h-6.33c-0.969,0-1.762-0.791-1.762-1.757v-7.212
								C805.541,241.385,806.334,240.592,807.303,240.592z"/>
							<path fill-rule="evenodd" clip-rule="evenodd" fill="#CCCCCC" d="M794.527,240.592h6.328c0.971,0,1.76,0.793,1.76,1.76v7.212
								c0,0.966-0.789,1.757-1.76,1.757h-6.328c-0.967,0-1.76-0.791-1.76-1.757v-7.212
								C792.768,241.385,793.561,240.592,794.527,240.592z"/>
							<path fill-rule="evenodd" clip-rule="evenodd" fill="#CCCCCC" d="M781.758,240.592h6.324c0.971,0,1.762,0.793,1.762,1.76
								v7.212c0,0.966-0.791,1.757-1.762,1.757h-6.324c-0.971,0-1.762-0.791-1.762-1.757v-7.212
								C779.996,241.385,780.787,240.592,781.758,240.592z"/>
							<path fill-rule="evenodd" clip-rule="evenodd" fill="#CCCCCC" d="M768.982,240.592h6.328c0.967,0,1.76,0.793,1.76,1.76v7.212
								c0,0.966-0.793,1.757-1.76,1.757h-6.328c-0.967,0-1.76-0.791-1.76-1.757v-7.212
								C767.223,241.385,768.016,240.592,768.982,240.592z"/>
							<path fill-rule="evenodd" clip-rule="evenodd" fill="#CCCCCC" d="M756.205,240.592h6.332c0.967,0,1.758,0.793,1.758,1.76
								v7.212c0,0.966-0.791,1.757-1.758,1.757h-6.332c-0.965,0-1.754-0.791-1.754-1.757v-7.212
								C754.451,241.385,755.24,240.592,756.205,240.592z"/>
							<path fill-rule="evenodd" clip-rule="evenodd" fill="#CCCCCC" d="M743.434,240.592h6.33c0.967,0,1.762,0.793,1.762,1.76
								v7.212c0,0.966-0.795,1.757-1.762,1.757h-6.33c-0.967,0-1.758-0.791-1.758-1.757v-7.212
								C741.676,241.385,742.467,240.592,743.434,240.592z"/>
							<path fill-rule="evenodd" clip-rule="evenodd" fill="#CCCCCC" d="M730.66,240.592h6.33c0.971,0,1.758,0.793,1.758,1.76v7.212
								c0,0.966-0.787,1.757-1.758,1.757h-6.33c-0.965,0-1.758-0.791-1.758-1.757v-7.212
								C728.902,241.385,729.695,240.592,730.66,240.592z"/>
							<path fill-rule="evenodd" clip-rule="evenodd" fill="#CCCCCC" d="M717.469,240.592h6.449c0.986,0,1.793,0.806,1.793,1.792
								v7.147c0,0.984-0.807,1.789-1.793,1.789h-6.449c-0.986,0-1.791-0.805-1.791-1.789v-7.147
								C715.678,241.397,716.482,240.592,717.469,240.592z"/>
							<path fill-rule="evenodd" clip-rule="evenodd" fill="#CCCCCC" d="M717.596,253.178h13.266c1.057,0,1.918,0.863,1.918,1.917
								v6.898c0,1.056-0.861,1.916-1.918,1.916h-13.266c-1.055,0-1.918-0.86-1.918-1.916v-6.898
								C715.678,254.041,716.541,253.178,717.596,253.178z"/>
							<path fill-rule="evenodd" clip-rule="evenodd" fill="#CCCCCC" d="M717.596,265.765h15.775c1.057,0,1.916,0.866,1.916,1.916
								v6.897c0,1.056-0.859,1.917-1.916,1.917h-15.775c-1.055,0-1.918-0.861-1.918-1.917v-6.897
								C715.678,266.631,716.541,265.765,717.596,265.765z"/>
							<path fill-rule="evenodd" clip-rule="evenodd" fill="#CCCCCC" d="M717.596,278.354h22.615c1.053,0,1.918,0.862,1.918,1.915
								v6.896c0,1.057-0.865,1.918-1.918,1.918h-22.615c-1.055,0-1.918-0.861-1.918-1.918v-6.896
								C715.678,279.217,716.541,278.354,717.596,278.354z"/>
							<path fill-rule="evenodd" clip-rule="evenodd" fill="#CCCCCC" d="M717.596,290.938h9.391c1.055,0,1.916,0.861,1.916,1.916
								v6.896c0,1.056-0.861,1.918-1.916,1.918h-9.391c-1.055,0-1.918-0.862-1.918-1.918v-6.896
								C715.678,291.8,716.541,290.938,717.596,290.938z"/>
							<path fill-rule="evenodd" clip-rule="evenodd" fill="#CCCCCC" d="M736.26,253.178h6.779c1.033,0,1.881,0.846,1.881,1.886
								v6.965c0,1.034-0.848,1.881-1.881,1.881h-6.779c-1.039,0-1.883-0.847-1.883-1.881v-6.965
								C734.377,254.023,735.221,253.178,736.26,253.178z"/>
							<path fill-rule="evenodd" clip-rule="evenodd" fill="#CCCCCC" d="M749.271,253.178h6.777c1.039,0,1.887,0.846,1.887,1.886
								v6.965c0,1.034-0.848,1.881-1.887,1.881h-6.777c-1.035,0-1.885-0.847-1.885-1.881v-6.965
								C747.387,254.023,748.236,253.178,749.271,253.178z"/>
							<path fill-rule="evenodd" clip-rule="evenodd" fill="#CCCCCC" d="M762.283,253.178h6.779c1.037,0,1.885,0.846,1.885,1.886
								v6.965c0,1.034-0.848,1.881-1.885,1.881h-6.779c-1.033,0-1.881-0.847-1.881-1.881v-6.965
								C760.402,254.023,761.25,253.178,762.283,253.178z"/>
							<path fill-rule="evenodd" clip-rule="evenodd" fill="#CCCCCC" d="M775.297,253.178h6.779c1.039,0,1.885,0.846,1.885,1.886
								v6.965c0,1.034-0.846,1.881-1.885,1.881h-6.779c-1.035,0-1.879-0.847-1.879-1.881v-6.965
								C773.418,254.023,774.262,253.178,775.297,253.178z"/>
							<path fill-rule="evenodd" clip-rule="evenodd" fill="#CCCCCC" d="M788.311,253.178h6.777c1.037,0,1.887,0.846,1.887,1.886
								v6.965c0,1.034-0.85,1.881-1.887,1.881h-6.777c-1.035,0-1.883-0.847-1.883-1.881v-6.965
								C786.428,254.023,787.275,253.178,788.311,253.178z"/>
							<path fill-rule="evenodd" clip-rule="evenodd" fill="#CCCCCC" d="M801.326,253.178h6.775c1.037,0,1.885,0.846,1.885,1.886
								v6.965c0,1.034-0.848,1.881-1.885,1.881h-6.775c-1.037,0-1.885-0.847-1.885-1.881v-6.965
								C799.441,254.023,800.289,253.178,801.326,253.178z"/>
							<path fill-rule="evenodd" clip-rule="evenodd" fill="#CCCCCC" d="M814.336,253.178h6.779c1.037,0,1.885,0.846,1.885,1.886
								v6.965c0,1.034-0.848,1.881-1.885,1.881h-6.779c-1.033,0-1.883-0.847-1.883-1.881v-6.965
								C812.453,254.023,813.303,253.178,814.336,253.178z"/>
							<path fill-rule="evenodd" clip-rule="evenodd" fill="#CCCCCC" d="M827.352,253.178h6.777c1.037,0,1.885,0.846,1.885,1.886
								v6.965c0,1.034-0.848,1.881-1.885,1.881h-6.777c-1.035,0-1.883-0.847-1.883-1.881v-6.965
								C825.469,254.023,826.316,253.178,827.352,253.178z"/>
							<path fill-rule="evenodd" clip-rule="evenodd" fill="#CCCCCC" d="M840.365,253.178h6.777c1.035,0,1.885,0.846,1.885,1.886
								v6.965c0,1.034-0.85,1.881-1.885,1.881h-6.777c-1.037,0-1.885-0.847-1.885-1.881v-6.965
								C838.48,254.023,839.328,253.178,840.365,253.178z"/>
							<path fill-rule="evenodd" clip-rule="evenodd" fill="#CCCCCC" d="M853.377,253.178h6.777c1.037,0,1.885,0.846,1.885,1.886
								v6.965c0,1.034-0.848,1.881-1.885,1.881h-6.777c-1.035,0-1.883-0.847-1.883-1.881v-6.965
								C851.494,254.023,852.342,253.178,853.377,253.178z"/>
							<path fill-rule="evenodd" clip-rule="evenodd" fill="#CCCCCC" d="M866.389,253.178h6.777c1.037,0,1.885,0.846,1.885,1.886
								v6.965c0,1.034-0.848,1.881-1.885,1.881h-6.777c-1.035,0-1.883-0.847-1.883-1.881v-6.965
								C864.506,254.023,865.354,253.178,866.389,253.178z"/>
							<path fill-rule="evenodd" clip-rule="evenodd" fill="#CCCCCC" d="M879.404,253.178h6.777c1.035,0,1.885,0.846,1.885,1.886
								v6.965c0,1.034-0.85,1.881-1.885,1.881h-6.777c-1.037,0-1.883-0.847-1.883-1.881v-6.965
								C877.521,254.023,878.367,253.178,879.404,253.178z"/>
							<path fill-rule="evenodd" clip-rule="evenodd" fill="#CCCCCC" d="M739.879,265.765h6.777c1.039,0,1.885,0.848,1.885,1.886
								v6.963c0,1.037-0.846,1.882-1.885,1.882h-6.777c-1.035,0-1.885-0.845-1.885-1.882v-6.963
								C737.994,266.612,738.844,265.765,739.879,265.765z"/>
							<path fill-rule="evenodd" clip-rule="evenodd" fill="#CCCCCC" d="M752.893,265.765h6.777c1.035,0,1.885,0.848,1.885,1.886
								v6.963c0,1.037-0.85,1.882-1.885,1.882h-6.777c-1.035,0-1.885-0.845-1.885-1.882v-6.963
								C751.008,266.612,751.857,265.765,752.893,265.765z"/>
							<path fill-rule="evenodd" clip-rule="evenodd" fill="#CCCCCC" d="M765.906,265.765h6.775c1.035,0,1.885,0.848,1.885,1.886
								v6.963c0,1.037-0.85,1.882-1.885,1.882h-6.775c-1.037,0-1.885-0.845-1.885-1.882v-6.963
								C764.021,266.612,764.869,265.765,765.906,265.765z"/>
							<path fill-rule="evenodd" clip-rule="evenodd" fill="#CCCCCC" d="M778.92,265.765h6.777c1.035,0,1.885,0.848,1.885,1.886
								v6.963c0,1.037-0.85,1.882-1.885,1.882h-6.777c-1.037,0-1.885-0.845-1.885-1.882v-6.963
								C777.035,266.612,777.883,265.765,778.92,265.765z"/>
							<path fill-rule="evenodd" clip-rule="evenodd" fill="#CCCCCC" d="M791.93,265.765h6.779c1.039,0,1.883,0.848,1.883,1.886
								v6.963c0,1.037-0.844,1.882-1.883,1.882h-6.779c-1.035,0-1.879-0.845-1.879-1.882v-6.963
								C790.051,266.612,790.895,265.765,791.93,265.765z"/>
							<path fill-rule="evenodd" clip-rule="evenodd" fill="#CCCCCC" d="M804.945,265.765h6.775c1.037,0,1.885,0.848,1.885,1.886
								v6.963c0,1.037-0.848,1.882-1.885,1.882h-6.775c-1.037,0-1.885-0.845-1.885-1.882v-6.963
								C803.061,266.612,803.908,265.765,804.945,265.765z"/>
							<path fill-rule="evenodd" clip-rule="evenodd" fill="#CCCCCC" d="M817.959,265.765h6.775c1.039,0,1.885,0.848,1.885,1.886
								v6.963c0,1.037-0.846,1.882-1.885,1.882h-6.775c-1.037,0-1.885-0.845-1.885-1.882v-6.963
								C816.074,266.612,816.922,265.765,817.959,265.765z"/>
							<path fill-rule="evenodd" clip-rule="evenodd" fill="#CCCCCC" d="M830.971,265.765h6.777c1.037,0,1.883,0.848,1.883,1.886
								v6.963c0,1.037-0.846,1.882-1.883,1.882h-6.777c-1.035,0-1.885-0.845-1.885-1.882v-6.963
								C829.086,266.612,829.936,265.765,830.971,265.765z"/>
							<path fill-rule="evenodd" clip-rule="evenodd" fill="#CCCCCC" d="M843.984,265.765h6.779c1.035,0,1.885,0.848,1.885,1.886
								v6.963c0,1.037-0.85,1.882-1.885,1.882h-6.779c-1.035,0-1.883-0.845-1.883-1.882v-6.963
								C842.102,266.612,842.949,265.765,843.984,265.765z"/>
							<path fill-rule="evenodd" clip-rule="evenodd" fill="#CCCCCC" d="M856.996,265.765h6.779c1.037,0,1.883,0.848,1.883,1.886
								v6.963c0,1.037-0.846,1.882-1.883,1.882h-6.779c-1.037,0-1.883-0.845-1.883-1.882v-6.963
								C855.113,266.612,855.959,265.765,856.996,265.765z"/>
							<path fill-rule="evenodd" clip-rule="evenodd" fill="#CCCCCC" d="M870.01,265.765h6.779c1.035,0,1.883,0.848,1.883,1.886
								v6.963c0,1.037-0.848,1.882-1.883,1.882h-6.779c-1.033,0-1.883-0.845-1.883-1.882v-6.963
								C868.127,266.612,868.977,265.765,870.01,265.765z"/>
							<path fill-rule="evenodd" clip-rule="evenodd" fill="#CCCCCC" d="M746.691,278.354h6.779c1.035,0,1.883,0.847,1.883,1.882
								v6.963c0,1.037-0.848,1.884-1.883,1.884h-6.779c-1.035,0-1.883-0.847-1.883-1.884v-6.963
								C744.809,279.201,745.656,278.354,746.691,278.354z"/>
							<path fill-rule="evenodd" clip-rule="evenodd" fill="#CCCCCC" d="M759.707,278.354h6.773c1.041,0,1.887,0.847,1.887,1.882
								v6.963c0,1.037-0.846,1.884-1.887,1.884h-6.773c-1.041,0-1.883-0.847-1.883-1.884v-6.963
								C757.824,279.201,758.666,278.354,759.707,278.354z"/>
							<path fill-rule="evenodd" clip-rule="evenodd" fill="#CCCCCC" d="M772.719,278.354h6.777c1.037,0,1.885,0.847,1.885,1.882
								v6.963c0,1.037-0.848,1.884-1.885,1.884h-6.777c-1.037,0-1.883-0.847-1.883-1.884v-6.963
								C770.836,279.201,771.682,278.354,772.719,278.354z"/>
							<path fill-rule="evenodd" clip-rule="evenodd" fill="#CCCCCC" d="M785.732,278.354h6.777c1.037,0,1.885,0.847,1.885,1.882
								v6.963c0,1.037-0.848,1.884-1.885,1.884h-6.777c-1.035,0-1.885-0.847-1.885-1.884v-6.963
								C783.848,279.201,784.697,278.354,785.732,278.354z"/>
							<path fill-rule="evenodd" clip-rule="evenodd" fill="#CCCCCC" d="M798.744,278.354h6.779c1.033,0,1.881,0.847,1.881,1.882
								v6.963c0,1.037-0.848,1.884-1.881,1.884h-6.779c-1.035,0-1.883-0.847-1.883-1.884v-6.963
								C796.861,279.201,797.709,278.354,798.744,278.354z"/>
							<path fill-rule="evenodd" clip-rule="evenodd" fill="#CCCCCC" d="M811.76,278.354h6.775c1.035,0,1.887,0.847,1.887,1.882
								v6.963c0,1.037-0.852,1.884-1.887,1.884h-6.775c-1.037,0-1.887-0.847-1.887-1.884v-6.963
								C809.873,279.201,810.723,278.354,811.76,278.354z"/>
							<path fill-rule="evenodd" clip-rule="evenodd" fill="#CCCCCC" d="M824.77,278.354h6.777c1.039,0,1.887,0.847,1.887,1.882
								v6.963c0,1.037-0.848,1.884-1.887,1.884h-6.777c-1.035,0-1.883-0.847-1.883-1.884v-6.963
								C822.887,279.201,823.734,278.354,824.77,278.354z"/>
							<path fill-rule="evenodd" clip-rule="evenodd" fill="#CCCCCC" d="M837.783,278.354h6.781c1.033,0,1.883,0.847,1.883,1.882
								v6.963c0,1.037-0.85,1.884-1.883,1.884h-6.781c-1.033,0-1.883-0.847-1.883-1.884v-6.963
								C835.9,279.201,836.75,278.354,837.783,278.354z"/>
							<path fill-rule="evenodd" clip-rule="evenodd" fill="#CCCCCC" d="M850.799,278.354h6.777c1.037,0,1.881,0.847,1.881,1.882
								v6.963c0,1.037-0.844,1.884-1.881,1.884h-6.777c-1.039,0-1.885-0.847-1.885-1.884v-6.963
								C848.914,279.201,849.76,278.354,850.799,278.354z"/>
							<path fill-rule="evenodd" clip-rule="evenodd" fill="#CCCCCC" d="M863.811,278.354h6.777c1.035,0,1.885,0.847,1.885,1.882
								v6.963c0,1.037-0.85,1.884-1.885,1.884h-6.777c-1.039,0-1.885-0.847-1.885-1.884v-6.963
								C861.926,279.201,862.771,278.354,863.811,278.354z"/>
							<path fill-rule="evenodd" clip-rule="evenodd" fill="#CCCCCC" d="M876.855,278.354h12.256c1.053,0,1.92,0.862,1.92,1.915
								v6.896c0,1.057-0.867,1.918-1.92,1.918h-12.256c-1.053,0-1.916-0.861-1.916-1.918v-6.896
								C874.939,279.217,875.803,278.354,876.855,278.354z"/>
							<path fill-rule="evenodd" clip-rule="evenodd" fill="#CCCCCC" d="M733.467,290.938h6.779c1.035,0,1.883,0.849,1.883,1.885
								v6.961c0,1.039-0.848,1.885-1.883,1.885h-6.779c-1.035,0-1.883-0.846-1.883-1.885v-6.961
								C731.584,291.787,732.432,290.938,733.467,290.938z"/>
							<path fill-rule="evenodd" clip-rule="evenodd" fill="#CCCCCC" d="M746.48,290.938h6.779c1.033,0,1.883,0.849,1.883,1.885
								v6.961c0,1.039-0.85,1.885-1.883,1.885h-6.779c-1.037,0-1.883-0.846-1.883-1.885v-6.961
								C744.598,291.787,745.443,290.938,746.48,290.938z"/>
							<path fill-rule="evenodd" clip-rule="evenodd" fill="#CCCCCC" d="M759.496,290.938h6.775c1.037,0,1.887,0.849,1.887,1.885
								v6.961c0,1.039-0.85,1.885-1.887,1.885h-6.775c-1.041,0-1.887-0.846-1.887-1.885v-6.961
								C757.609,291.787,758.455,290.938,759.496,290.938z"/>
							<path fill-rule="evenodd" clip-rule="evenodd" fill="#CCCCCC" d="M772.508,290.938h6.779c1.033,0,1.881,0.849,1.881,1.885
								v6.961c0,1.039-0.848,1.885-1.881,1.885h-6.779c-1.035,0-1.885-0.846-1.885-1.885v-6.961
								C770.623,291.787,771.473,290.938,772.508,290.938z"/>
							<path fill-rule="evenodd" clip-rule="evenodd" fill="#CCCCCC" d="M785.52,290.938h6.777c1.037,0,1.883,0.849,1.883,1.885
								v6.961c0,1.039-0.846,1.885-1.883,1.885h-6.777c-1.035,0-1.885-0.846-1.885-1.885v-6.961
								C783.635,291.787,784.484,290.938,785.52,290.938z"/>
							<path fill-rule="evenodd" clip-rule="evenodd" fill="#CCCCCC" d="M798.533,290.938h6.777c1.037,0,1.883,0.849,1.883,1.885
								v6.961c0,1.039-0.846,1.885-1.883,1.885h-6.777c-1.035,0-1.885-0.846-1.885-1.885v-6.961
								C796.648,291.787,797.498,290.938,798.533,290.938z"/>
							<path fill-rule="evenodd" clip-rule="evenodd" fill="#CCCCCC" d="M811.547,290.938h6.777c1.035,0,1.885,0.849,1.885,1.885
								v6.961c0,1.039-0.85,1.885-1.885,1.885h-6.777c-1.039,0-1.885-0.846-1.885-1.885v-6.961
								C809.662,291.787,810.508,290.938,811.547,290.938z"/>
							<path fill-rule="evenodd" clip-rule="evenodd" fill="#CCCCCC" d="M824.563,290.938h6.775c1.035,0,1.883,0.849,1.883,1.885
								v6.961c0,1.039-0.848,1.885-1.883,1.885h-6.775c-1.041,0-1.887-0.846-1.887-1.885v-6.961
								C822.676,291.787,823.521,290.938,824.563,290.938z"/>
							<path fill-rule="evenodd" clip-rule="evenodd" fill="#CCCCCC" d="M837.57,290.938h6.781c1.035,0,1.879,0.849,1.879,1.885
								v6.961c0,1.039-0.844,1.885-1.879,1.885h-6.781c-1.035,0-1.881-0.846-1.881-1.885v-6.961
								C835.689,291.787,836.535,290.938,837.57,290.938z"/>
							<path fill-rule="evenodd" clip-rule="evenodd" fill="#CCCCCC" d="M850.586,290.938h6.777c1.035,0,1.885,0.849,1.885,1.885
								v6.961c0,1.039-0.85,1.885-1.885,1.885h-6.777c-1.037,0-1.885-0.846-1.885-1.885v-6.961
								C848.701,291.787,849.549,290.938,850.586,290.938z"/>
							<path fill-rule="evenodd" clip-rule="evenodd" fill="#CCCCCC" d="M863.631,290.938h12.258c1.053,0,1.918,0.861,1.918,1.916
								v6.896c0,1.056-0.865,1.918-1.918,1.918h-12.258c-1.053,0-1.916-0.862-1.916-1.918v-6.896
								C861.715,291.8,862.578,290.938,863.631,290.938z"/>
							<path fill-rule="evenodd" clip-rule="evenodd" fill="#CCCCCC" d="M882.789,290.938h6.447c0.988,0,1.795,0.807,1.795,1.792
								v7.148c0,0.985-0.807,1.79-1.795,1.79h-6.447c-0.984,0-1.791-0.805-1.791-1.79v-7.148
								C880.998,291.745,881.805,290.938,882.789,290.938z"/>
							<path fill-rule="evenodd" clip-rule="evenodd" fill="#CCCCCC" d="M781.084,310.698h67.619c1.033,0,1.875,0.843,1.875,1.875
								v32.513c0,1.031-0.842,1.877-1.875,1.877h-67.619c-1.031,0-1.873-0.846-1.873-1.877v-32.513
								C779.211,311.541,780.053,310.698,781.084,310.698z"/>
							<path fill-rule="evenodd" clip-rule="evenodd" fill="#CCCCCC" d="M779.598,349.389h33.631c0.215,0,0.389,0.177,0.389,0.393
								v6.753c0,0.211-0.174,0.388-0.389,0.388h-33.631c-0.217,0-0.387-0.177-0.387-0.388v-6.753
								C779.211,349.565,779.381,349.389,779.598,349.389z"/>
							<path fill-rule="evenodd" clip-rule="evenodd" fill="#CCCCCC" d="M816.559,349.389h33.631c0.213,0,0.389,0.177,0.389,0.393
								v6.753c0,0.211-0.176,0.388-0.389,0.388h-33.631c-0.213,0-0.389-0.177-0.389-0.388v-6.753
								C816.17,349.565,816.346,349.389,816.559,349.389z"/>
						</g>
						<g>
							<g>
								<g>
									<path fill-rule="evenodd" clip-rule="evenodd" fill="#F06358" d="M706.787,162.346c21.16,0,42.344,0,63.502,0
										c21.162,0,42.348,0,63.529,0c0.068,5.248,0.123,10.496,0.182,15.744c0.055,5.248,0.137,10.496,0.199,15.743
										c-19.76,0-39.525,0-59.287,0c-19.744,0-39.508,0-59.246,0c-1.488-5.247-2.967-10.499-4.441-15.743
										C709.752,172.837,708.275,167.594,706.787,162.346z"/>
									<path fill-rule="evenodd" clip-rule="evenodd" fill="#F58982" d="M706.787,162.346c21.16,0,42.344,0,63.502,0
										c21.162,0,42.348,0,63.529,0c0,0.595,0.021,1.189,0,1.782c-21.094,0-42.186,0-63.279,0s-42.186,0-63.256,0
										C707.127,163.535,706.969,162.94,706.787,162.346z"/>
								</g>
								<g>
									<path fill-rule="evenodd" clip-rule="evenodd" fill="#346896" d="M784.713,167.283c-9.168,0-16.189,2.892-15.84,5.178
										c0.35,2.288,3.133,3.233,7.324,4.175c-0.678,0.714-1.355,1.428-2.006,2.136c1.801-0.506,3.604-1.021,5.406-1.534
										c1.939,0.257,0.732,0.396,6.332,0.396c5.604,0,16.07-2.314,15.842-5.173C801.547,169.6,793.885,167.283,784.713,167.283z"
										/>
									<g>
										<path fill-rule="evenodd" clip-rule="evenodd" fill="#FFFFFF" d="M778.021,171.749c1.229,0,2.275,0.364,2.344,0.813
											c0.047,0.447-0.9,0.81-2.143,0.81c-1.215,0-2.252-0.362-2.299-0.81C775.857,172.113,776.791,171.749,778.021,171.749z"/>
										<path fill-rule="evenodd" clip-rule="evenodd" fill="#FFFFFF" d="M785.232,171.749c1.238,0,2.275,0.364,2.342,0.813
											c0.025,0.447-0.924,0.81-2.162,0.81s-2.275-0.362-2.322-0.81C783.047,172.113,783.996,171.749,785.232,171.749z"/>
										<path fill-rule="evenodd" clip-rule="evenodd" fill="#FFFFFF" d="M792.445,171.749c1.24,0,2.252,0.364,2.295,0.813
											c0.047,0.447-0.9,0.81-2.139,0.81s-2.254-0.362-2.297-0.81C790.26,172.113,791.203,171.749,792.445,171.749z"/>
									</g>
								</g>
								<g>
									<path fill-rule="evenodd" clip-rule="evenodd" fill="#FFD500" d="M750.643,171.196c9.102,0,16.92,2.891,17.283,5.181
										c0.359,2.289-2.096,3.237-5.951,4.181c0.857,0.712,1.736,1.428,2.617,2.136c-1.939-0.513-3.879-1.026-5.838-1.54
										c-1.873,0.255-0.576,0.4-6.129,0.4c-5.557,0-16.676-2.321-17.332-5.177C734.641,173.516,741.539,171.196,750.643,171.196z"
										/>
									<g>
										<path fill-rule="evenodd" clip-rule="evenodd" fill="#FFFFFF" d="M758.639,175.662c-1.215,0-2.139,0.363-2.07,0.815
											c0.09,0.449,1.125,0.812,2.344,0.812c1.238,0,2.139-0.362,2.072-0.812C760.895,176.025,759.859,175.662,758.639,175.662z"
											/>
										<path fill-rule="evenodd" clip-rule="evenodd" fill="#FFFFFF" d="M751.498,175.662c-1.229,0-2.166,0.363-2.053,0.815
											c0.066,0.449,1.129,0.812,2.367,0.812c1.193,0,2.119-0.362,2.051-0.812C753.773,176.025,752.727,175.662,751.498,175.662z
											"/>
										<path fill-rule="evenodd" clip-rule="evenodd" fill="#FFFFFF" d="M744.352,175.662c-1.213,0-2.139,0.363-2.025,0.815
											c0.066,0.449,1.146,0.812,2.344,0.812c1.236,0,2.137-0.362,2.047-0.812C746.629,176.025,745.568,175.662,744.352,175.662z
											"/>
									</g>
								</g>
								<g>
									<path fill-rule="evenodd" clip-rule="evenodd" fill="#FFFFFF" d="M782.551,179.658c-8.945,0-15.74,2.891-15.369,5.18
										c0.373,2.285,3.107,3.236,7.188,4.178c-0.652,0.712-1.305,1.422-1.916,2.137c1.76-0.509,3.494-1.024,5.254-1.538
										c1.891,0.257,0.707,0.4,6.152,0.4c5.441,0,15.604-2.317,15.346-5.177C798.945,181.978,791.498,179.658,782.551,179.658z"/>
									<g>
										<path fill-rule="evenodd" clip-rule="evenodd" fill="#346896" d="M776.082,184.123c1.207,0,2.232,0.367,2.299,0.817
											c0.068,0.443-0.855,0.807-2.072,0.807c-1.195,0-2.211-0.363-2.273-0.807C773.965,184.49,774.879,184.123,776.082,184.123z
											"/>
										<path fill-rule="evenodd" clip-rule="evenodd" fill="#346896" d="M783.117,184.123c1.201,0,2.229,0.367,2.27,0.817
											c0.047,0.443-0.898,0.807-2.072,0.807c-1.215,0-2.205-0.363-2.273-0.807C780.996,184.49,781.908,184.123,783.117,184.123z
											"/>
										<path fill-rule="evenodd" clip-rule="evenodd" fill="#346896" d="M790.123,184.123c1.191,0,2.207,0.367,2.252,0.817
											c0.045,0.443-0.877,0.807-2.096,0.807c-1.174,0-2.186-0.363-2.23-0.807C788.004,184.49,788.93,184.123,790.123,184.123z"
											/>
									</g>
								</g>
							</g>
							<g>
								<g>
									<path fill-rule="evenodd" clip-rule="evenodd" fill="#FF8800" d="M740.141,140.282c22.15,0,44.326,0,66.48,0
										c22.148,0,44.324,0,66.498,0c-0.383,5.253-0.744,10.5-1.104,15.752c-0.361,5.244-0.697,10.494-1.061,15.742
										c-20.754,0-41.51,0-62.262,0c-20.734,0-41.49,0-62.223,0c-1.082-5.248-2.119-10.498-3.176-15.742
										C742.234,150.782,741.176,145.535,740.141,140.282z"/>
									<path fill-rule="evenodd" clip-rule="evenodd" fill="#FFD4A3" d="M740.141,140.282c22.15,0,44.326,0,66.48,0
										c22.148,0,44.324,0,66.498,0c-0.066,0.594-0.111,1.188-0.133,1.784c-22.109,0-44.195,0-66.254,0
										c-22.088,0-44.172,0-66.258,0C740.344,141.471,740.229,140.876,740.141,140.282z"/>
								</g>
								<path fill-rule="evenodd" clip-rule="evenodd" fill="#FFC685" d="M781.109,145.081c16.383,0,32.787,0,49.191,0
									c0.023,1.113,0.047,2.222,0.068,3.329c-16.293,0-32.584,0-48.854,0C781.377,147.303,781.244,146.194,781.109,145.081z"/>
								<path fill-rule="evenodd" clip-rule="evenodd" fill="#FFC685" d="M750.438,149.867c18.525,0,37.07,0,55.572,0
									c18.523,0,37.068,0,55.596,0c0.021-0.193,0.021-0.392,0.043-0.588c-18.57,0-37.115,0-55.658,0c-18.549,0-37.117,0-55.643,0
									C750.369,149.476,750.414,149.674,750.438,149.867z"/>
								<path fill-rule="evenodd" clip-rule="evenodd" fill="#FFFFFF" d="M750.643,150.966c18.475,0,36.977,0,55.459,0
									c18.477,0,36.977,0,55.48,0c0-0.192,0-0.393,0.023-0.589c-18.527,0-37.049,0-55.549,0c-18.504,0-37.004,0-55.504,0
									C750.574,150.573,750.617,150.773,750.643,150.966z"/>
								<path fill-rule="evenodd" clip-rule="evenodd" fill="#346896" d="M750.797,151.881c9.982,0,19.967,0,29.949,0
									c0.16,1.114,0.295,2.222,0.43,3.333c-9.914,0-19.854,0-29.746,0C751.227,154.103,751.023,152.995,750.797,151.881z"/>
								<path fill-rule="evenodd" clip-rule="evenodd" fill="#FFD500" d="M791.203,151.881c9.984,0,19.945,0,29.93,0
									c0.043,1.114,0.09,2.222,0.156,3.333c-9.939,0-19.832,0-29.723,0C791.428,154.103,791.314,152.995,791.203,151.881z"/>
								<path fill-rule="evenodd" clip-rule="evenodd" fill="#D4453B" d="M831.588,151.881c9.961,0,19.945,0,29.928,0
									c-0.045,1.114-0.09,2.222-0.139,3.333c-9.914,0-19.828,0-29.723,0C831.633,154.103,831.613,152.995,831.588,151.881z"/>
								<path fill-rule="evenodd" clip-rule="evenodd" fill="#FFFFFF" d="M751.676,156.535c9.873,0,19.766,0,29.66,0
									c-0.025-0.193-0.047-0.386-0.07-0.585c-9.916,0-19.83,0-29.701,0C751.607,156.149,751.633,156.342,751.676,156.535z"/>
								<path fill-rule="evenodd" clip-rule="evenodd" fill="#FFFFFF" d="M751.881,157.639c9.85,0,19.719,0,29.586,0
									c-0.02-0.192-0.045-0.393-0.064-0.589c-9.896,0-19.764,0-29.633,0C751.789,157.246,751.836,157.446,751.881,157.639z"/>
								<path fill-rule="evenodd" clip-rule="evenodd" fill="#FFFFFF" d="M752.084,158.736c9.822,0,19.67,0,29.52,0
									c-0.021-0.193-0.043-0.386-0.066-0.584c-9.871,0-19.719,0-29.568,0C751.992,158.351,752.059,158.543,752.084,158.736z"/>
								<path fill-rule="evenodd" clip-rule="evenodd" fill="#FFFFFF" d="M752.287,159.838c9.803,0,19.627,0,29.451,0
									c-0.045-0.19-0.045-0.393-0.088-0.587c-9.828,0-19.676,0-29.477,0C752.219,159.445,752.24,159.647,752.287,159.838z"/>
								<path fill-rule="evenodd" clip-rule="evenodd" fill="#FFFFFF" d="M791.676,156.535c9.893,0,19.764,0,29.656,0
									c-0.021-0.193-0.021-0.386-0.021-0.585c-9.914,0-19.807,0-29.678,0C791.652,156.149,791.652,156.342,791.676,156.535z"/>
								<path fill-rule="evenodd" clip-rule="evenodd" fill="#FFFFFF" d="M791.789,157.639c9.85,0,19.695,0,29.568,0
									c0-0.192,0-0.393-0.025-0.589c-9.869,0-19.74,0-29.609,0C791.742,157.246,791.768,157.446,791.789,157.639z"/>
								<path fill-rule="evenodd" clip-rule="evenodd" fill="#FFFFFF" d="M791.904,158.736c9.824,0,19.648,0,29.496,0
									c0-0.193-0.023-0.386,0-0.584c-9.869,0-19.719,0-29.541,0C791.859,158.351,791.904,158.543,791.904,158.736z"/>
								<path fill-rule="evenodd" clip-rule="evenodd" fill="#FFFFFF" d="M792.016,159.838c9.805,0,19.604,0,29.43,0
									c0-0.19,0-0.393-0.021-0.587c-9.85,0-19.652,0-29.475,0C791.971,159.445,791.994,159.647,792.016,159.838z"/>
								<path fill-rule="evenodd" clip-rule="evenodd" fill="#FFFFFF" d="M831.68,156.535c9.869,0,19.738,0,29.631,0
									c0.023-0.193,0.023-0.386,0.023-0.585c-9.893,0-19.785,0-29.68,0C831.68,156.149,831.68,156.342,831.68,156.535z"/>
								<path fill-rule="evenodd" clip-rule="evenodd" fill="#FFFFFF" d="M831.701,157.639c9.848,0,19.695,0,29.566,0
									c0-0.192,0.021-0.393,0.021-0.589c-9.893,0-19.74,0-29.609,0C831.68,157.246,831.68,157.446,831.701,157.639z"/>
								<path fill-rule="evenodd" clip-rule="evenodd" fill="#FFFFFF" d="M831.701,158.736c9.826,0,19.648,0,29.496,0
									c0.023-0.193,0.023-0.386,0.047-0.584c-9.848,0-19.695,0-29.543,0C831.701,158.351,831.723,158.543,831.701,158.736z"/>
								<path fill-rule="evenodd" clip-rule="evenodd" fill="#FFFFFF" d="M831.746,159.838c9.803,0,19.604,0,29.43,0
									c0-0.19,0-0.393,0-0.587c-9.826,0-19.648,0-29.453,0C831.723,159.445,831.723,159.647,831.746,159.838z"/>
								<path fill-rule="evenodd" clip-rule="evenodd" fill="#FFC685" d="M752.604,161.578c18.07,0,36.168,0,54.24,0
									c18.051,0,36.145,0,54.242,0c0.021-0.191,0.021-0.392,0.021-0.587c-18.119,0-36.213,0-54.307,0c-18.098,0-36.217,0-54.313,0
									C752.535,161.187,752.555,161.387,752.604,161.578z"/>
								<path fill-rule="evenodd" clip-rule="evenodd" fill="#FFFFFF" d="M773.084,162.832c10.459,0,20.893,0,31.371,0
									c0-0.194-0.021-0.391-0.021-0.586c-10.504,0-20.961,0-31.412,0C773.021,162.441,773.064,162.638,773.084,162.832z"/>
								<path fill-rule="evenodd" clip-rule="evenodd" fill="#FFFFFF" d="M773.242,163.931c10.436,0,20.869,0,31.303,0
									c0-0.194-0.021-0.387-0.047-0.586c-10.455,0-20.889,0-31.344,0C773.199,163.544,773.221,163.736,773.242,163.931z"/>
								<path fill-rule="evenodd" clip-rule="evenodd" fill="#FFD500" d="M752.711,162.246c5.141,0,10.256,0,15.396,0
									c0.064,0.578,0.154,1.146,0.246,1.721c-5.115,0-10.207,0-15.324,0C752.941,163.393,752.824,162.824,752.711,162.246z"/>
								<path fill-rule="evenodd" clip-rule="evenodd" fill="#FFFFFF" d="M829.672,162.832c10.434,0,20.891,0,31.344,0
									c0.025-0.194,0.025-0.391,0.049-0.586c-10.479,0-20.936,0-31.414,0C829.65,162.441,829.672,162.638,829.672,162.832z"/>
								<path fill-rule="evenodd" clip-rule="evenodd" fill="#FFFFFF" d="M829.691,163.931c10.438,0,20.871,0,31.283,0
									c0-0.194,0.021-0.387,0.021-0.586c-10.434,0-20.867,0-31.324,0C829.691,163.544,829.691,163.736,829.691,163.931z"/>
								<path fill-rule="evenodd" clip-rule="evenodd" fill="#D4453B" d="M809.369,162.246c5.137,0,10.252,0,15.389,0
									c0,0.578,0.021,1.146,0.049,1.721c-5.117,0-10.213,0-15.328,0C809.436,163.393,809.414,162.824,809.369,162.246z"/>
								<path fill-rule="evenodd" clip-rule="evenodd" fill="#FFFFFF" d="M773.424,165.248c10.412,0,20.799,0,31.211,0
									c0-0.194,0-0.386-0.043-0.585c-10.438,0-20.846,0-31.26,0C773.377,164.862,773.4,165.054,773.424,165.248z"/>
								<path fill-rule="evenodd" clip-rule="evenodd" fill="#FFFFFF" d="M773.582,166.35c10.365,0,20.756,0,31.145,0
									c-0.025-0.192-0.025-0.392-0.047-0.586c-10.389,0-20.779,0-31.166,0C773.514,165.958,773.559,166.157,773.582,166.35z"/>
								<path fill-rule="evenodd" clip-rule="evenodd" fill="#346896" d="M753.166,164.663c5.092,0,10.207,0,15.301,0
									c0.09,0.573,0.158,1.147,0.271,1.721c-5.096,0-10.164,0-15.236,0C753.367,165.811,753.279,165.236,753.166,164.663z"/>
								<path fill-rule="evenodd" clip-rule="evenodd" fill="#FFFFFF" d="M829.717,165.248c10.412,0,20.801,0,31.211,0
									c0-0.194,0.023-0.386,0-0.585c-10.389,0-20.799,0-31.211,0C829.717,164.862,829.717,165.054,829.717,165.248z"/>
								<path fill-rule="evenodd" clip-rule="evenodd" fill="#FFFFFF" d="M829.74,166.35c10.365,0,20.754,0,31.119,0
									c0-0.192,0.023-0.392,0.045-0.586c-10.387,0-20.775,0-31.164,0C829.74,165.958,829.74,166.157,829.74,166.35z"/>
								<path fill-rule="evenodd" clip-rule="evenodd" fill="#FFD500" d="M809.521,164.663c5.096,0,10.213,0,15.305,0
									c0.02,0.573,0.02,1.147,0.068,1.721c-5.096,0-10.166,0-15.26,0C809.592,165.811,809.57,165.236,809.521,164.663z"/>
								<path fill-rule="evenodd" clip-rule="evenodd" fill="#FFFFFF" d="M773.785,167.667c10.342,0,20.688,0,31.051,0
									c-0.023-0.19-0.043-0.392-0.066-0.588c-10.365,0-20.734,0-31.098,0C773.717,167.275,773.74,167.477,773.785,167.667z"/>
								<path fill-rule="evenodd" clip-rule="evenodd" fill="#FFFFFF" d="M773.92,168.765c10.322,0,20.645,0,30.984,0
									c0-0.191-0.021-0.384-0.045-0.582c-10.342,0-20.686,0-31.008,0C773.873,168.381,773.898,168.573,773.92,168.765z"/>
								<path fill-rule="evenodd" clip-rule="evenodd" fill="#D4453B" d="M753.615,167.079c5.07,0,10.143,0,15.213,0
									c0.09,0.578,0.178,1.151,0.268,1.725c-5.047,0-10.117,0-15.164,0C753.82,168.23,753.705,167.657,753.615,167.079z"/>
								<path fill-rule="evenodd" clip-rule="evenodd" fill="#FFFFFF" d="M829.785,167.667c10.344,0,20.686,0,31.029,0
									c0-0.19,0.023-0.392,0-0.588c-10.344,0-20.709,0-31.053,0C829.762,167.275,829.762,167.477,829.785,167.667z"/>
								<path fill-rule="evenodd" clip-rule="evenodd" fill="#FFFFFF" d="M829.785,168.765c10.32,0,20.643,0,30.965,0
									c0.02-0.191,0.02-0.384,0.043-0.582c-10.346,0-20.664,0-31.008,0C829.785,168.381,829.785,168.573,829.785,168.765z"/>
								<path fill-rule="evenodd" clip-rule="evenodd" fill="#346896" d="M809.684,167.079c5.068,0,10.141,0,15.211,0
									c0.023,0.578,0.047,1.151,0.066,1.725c-5.047,0-10.115,0-15.164,0C809.75,168.23,809.703,167.657,809.684,167.079z"/>
							</g>
							<g>
								<g>
									<path fill-rule="evenodd" clip-rule="evenodd" fill="#346896" d="M794.088,152.836c21.588,0,43.201,0,64.791,0
										c21.609,0,43.223,0,64.855,0c-0.926,5.245-1.838,10.497-2.75,15.742c-0.916,5.251-1.848,10.496-2.773,15.747
										c-20.213,0-40.428,0-60.598,0c-20.168,0-40.359,0-60.529,0c-0.518-5.251-0.979-10.502-1.488-15.747
										C795.092,163.329,794.609,158.081,794.088,152.836z"/>
									<path fill-rule="evenodd" clip-rule="evenodd" fill="#5896CC" d="M794.088,152.836c21.588,0,43.201,0,64.791,0
										c21.609,0,43.223,0,64.855,0c-0.113,0.593-0.205,1.188-0.318,1.776c-21.541,0-43.084,0-64.605,0
										c-21.496,0-43.02,0-64.539,0C794.223,154.023,794.154,153.429,794.088,152.836z"/>
								</g>
								<g>
									<path fill-rule="evenodd" clip-rule="evenodd" fill="#5896CC" d="M815.723,174.624c14.105,0,28.215,0,42.299,0
										s28.215,0,42.32,0c-0.043,0.338-0.09,0.674-0.133,1.007c-14.086,0-28.17,0-42.232,0c-14.061,0-28.148,0-42.211,0
										C815.744,175.298,815.744,174.962,815.723,174.624z"/>
									<path fill-rule="evenodd" clip-rule="evenodd" fill="#FF8800" d="M826.336,173.784c-0.584,0-1.172,0-1.758,0
										c0.021,0.898,0.045,1.792,0.092,2.687c0.584,0,1.172,0,1.756,0C826.381,175.576,826.355,174.683,826.336,173.784z"/>
									<path fill-rule="evenodd" clip-rule="evenodd" fill="#D4453B" d="M842.922,160.439c8.879,0,17.736,0,26.592,0
										c3.785,0,6.771,1.096,6.67,2.436c-0.1,1.355-0.199,2.709-0.314,4.063c-0.111,1.337-3.223,2.438-6.916,2.438
										c-8.703,0-17.398,0-26.1,0c-3.672,0-6.703-1.102-6.713-2.438c-0.012-1.354-0.035-2.709-0.047-4.063
										C836.084,161.535,839.182,160.439,842.922,160.439z"/>
									<path fill-rule="evenodd" clip-rule="evenodd" fill="#FFFFFF" d="M850.09,162.296c4.033,0.874,8.023,1.748,12.033,2.616
										c-4.078,0.872-8.113,1.738-12.146,2.606C850,165.776,850.045,164.038,850.09,162.296z"/>
									<path fill-rule="evenodd" clip-rule="evenodd" fill="#5896CC" d="M888.332,177.28c0.924,0,1.848,0,2.771,0
										c0,0.142-0.023,0.274-0.023,0.408c-0.541,0-1.059,0-1.576,0c-0.021,0.197-0.047,0.396-0.068,0.593c-0.43,0-0.811,0-1.217,0
										C888.264,177.952,888.285,177.618,888.332,177.28L888.332,177.28z M889.391,178.754c-0.025,0.197-0.047,0.397-0.068,0.594
										c0.52,0,1.039,0,1.557,0c-0.023,0.139-0.023,0.273-0.049,0.408c-0.92,0-1.846,0-2.746,0
										c0.021-0.333,0.066-0.664,0.109-1.002C888.58,178.754,888.984,178.754,889.391,178.754L889.391,178.754z M895.543,177.28
										c0.92,0,1.867,0,2.795,0c-0.047,0.338-0.068,0.672-0.137,1.001c-0.406,0-0.811,0-1.217,0
										c0.047-0.196,0.047-0.396,0.092-0.593c-0.521,0-1.061,0-1.578,0C895.521,177.555,895.543,177.422,895.543,177.28
										L895.543,177.28z M898.156,178.754c-0.045,0.338-0.09,0.669-0.135,1.002c-0.926,0-1.848,0-2.77,0
										c0.02-0.135,0.02-0.27,0.043-0.408c0.516,0,1.035,0,1.553,0c0.049-0.196,0.049-0.396,0.092-0.594
										C897.322,178.754,897.752,178.754,898.156,178.754z"/>
									<g>
										<path fill-rule="evenodd" clip-rule="evenodd" fill="#5896CC" d="M861.605,177.377c-1.105,0.187-2.209,0.374-3.291,0.563
											c-0.631,0-1.242,0-1.848,0c-0.021,0.385-0.021,0.771-0.045,1.154c0.607,0,1.215,0,1.848,0
											c1.078,0.188,2.139,0.376,3.246,0.563C861.535,178.896,861.559,178.138,861.605,177.377z"/>
										<path fill="#5896CC" d="M862.979,177.298c0.924,0.146,1.531,0.425,1.826,0.743c0.156,0.167,0.225,0.341,0.203,0.521
											c-0.023,0.177-0.137,0.345-0.316,0.505c-0.338,0.302-0.971,0.554-1.869,0.673c-0.068-0.055-0.115-0.114-0.158-0.172
											c0.742-0.098,1.283-0.313,1.576-0.564c0.162-0.145,0.27-0.293,0.27-0.448c0-0.156-0.043-0.311-0.156-0.456
											c-0.27-0.272-0.766-0.515-1.578-0.63C862.842,177.413,862.91,177.354,862.979,177.298z"/>
										<path fill="#5896CC" d="M862.979,177.699c0.295,0.068,0.543,0.16,0.699,0.272l0,0c0.27,0.154,0.406,0.343,0.406,0.535
											c0,0.189-0.137,0.379-0.43,0.546c-0.18,0.111-0.428,0.207-0.766,0.285c-0.094-0.047-0.158-0.105-0.246-0.155
											c0.268-0.06,0.471-0.137,0.607-0.227c0.225-0.133,0.338-0.285,0.361-0.449c-0.023-0.155-0.137-0.31-0.338-0.438l0,0
											c-0.137-0.088-0.336-0.161-0.566-0.216C862.795,177.806,862.889,177.751,862.979,177.699z"/>
									</g>
									<path fill="#5896CC" d="M850.189,179.373v-0.261h0.033c0.158,0,0.27-0.022,0.385-0.068
										c0.109-0.048,0.168-0.123,0.182-0.226c0.01-0.107-0.047-0.191-0.16-0.235c-0.135-0.057-0.271-0.076-0.428-0.076h-0.012
										v-0.233c0.041-0.002,0.082-0.002,0.123-0.002c0.363,0,0.68,0.049,0.928,0.149c0.246,0.104,0.371,0.23,0.357,0.393
										c-0.014,0.17-0.109,0.305-0.385,0.406C850.928,179.325,850.59,179.372,850.189,179.373L850.189,179.373z M850.189,177.944
										v-0.259l0.104-0.004c0.336,0,0.627,0.044,0.832,0.106c0.246,0.075,0.361,0.173,0.43,0.307
										c-0.295,0.016-0.563,0.027-0.857,0.038c0-0.063-0.043-0.118-0.111-0.146c-0.09-0.032-0.229-0.043-0.34-0.043H850.189z
										 M850.189,177.686v0.259c-0.17,0.006-0.299,0.031-0.439,0.091c-0.117,0.052-0.18,0.182-0.225,0.377
										c0.176-0.082,0.404-0.129,0.664-0.139v0.233c-0.174,0-0.326,0.027-0.414,0.069c-0.113,0.051-0.186,0.12-0.186,0.214
										c0,0.102,0.076,0.176,0.207,0.236c0.107,0.049,0.232,0.081,0.393,0.086v0.261h-0.012c-0.473,0-0.859-0.055-1.146-0.19
										c-0.275-0.128-0.418-0.345-0.408-0.643c0.012-0.3,0.18-0.525,0.475-0.654C849.387,177.756,849.76,177.69,850.189,177.686
										L850.189,177.686z M835.803,179.373v-0.261h0.021c0.113,0,0.182-0.013,0.27-0.038c0.088-0.023,0.135-0.07,0.18-0.127
										c0.066-0.088,0.066-0.22,0.066-0.419c0-0.194,0.008-0.331-0.041-0.402c-0.061-0.076-0.135-0.124-0.205-0.145
										c-0.088-0.026-0.18-0.037-0.27-0.037h-0.021v-0.263h0.021c0.43,0,0.768,0.058,1.014,0.172
										c0.293,0.138,0.428,0.363,0.428,0.675c0,0.317-0.139,0.535-0.447,0.68c-0.23,0.106-0.545,0.165-0.994,0.165H835.803
										L835.803,179.373z M837.582,179.373c0.336-0.564,0.721-1.138,1.08-1.714c0.205,0,0.406,0,0.633,0
										c-0.363,0.576-0.721,1.149-1.08,1.714C837.986,179.373,837.783,179.373,837.582,179.373L837.582,179.373z M842.492,179.053
										c0,0.103,0,0.197,0,0.295c-1.012,0-2.004,0-3.016,0c0.018-0.115,0.135-0.215,0.291-0.316
										c0.16-0.101,0.473-0.235,0.969-0.404c0.381-0.126,0.615-0.205,0.723-0.265c0.094-0.053,0.166-0.131,0.154-0.197
										c-0.012-0.07-0.039-0.13-0.133-0.163c-0.113-0.039-0.25-0.058-0.451-0.058c-0.18,0-0.291,0.027-0.406,0.064
										c-0.133,0.042-0.18,0.102-0.18,0.199c-0.293-0.011-0.586-0.021-0.855-0.032c0.043-0.179,0.201-0.303,0.475-0.381
										c0.27-0.078,0.607-0.113,1.012-0.113c0.428,0,0.785,0.048,1.014,0.136c0.246,0.091,0.404,0.197,0.404,0.325
										c0,0.074-0.041,0.146-0.109,0.215c-0.068,0.07-0.201,0.144-0.34,0.213c-0.107,0.056-0.316,0.116-0.584,0.212
										c-0.25,0.085-0.449,0.159-0.498,0.18c-0.088,0.039-0.133,0.06-0.201,0.091
										C841.322,179.053,841.908,179.053,842.492,179.053L842.492,179.053z M843.396,178.463c0.023-0.101,0.023-0.208,0.023-0.315
										c0.291,0,0.564,0,0.855,0c0.02,0.107,0,0.215,0,0.315C843.984,178.463,843.689,178.463,843.396,178.463L843.396,178.463z
										 M843.396,179.348c0-0.101,0.023-0.209,0-0.316c0.293,0,0.588,0,0.879,0c0,0.107,0,0.216,0,0.316
										C843.984,179.348,843.689,179.348,843.396,179.348L843.396,179.348z M845.131,178.919c0.291-0.012,0.609-0.022,0.902-0.033
										c0,0.076,0.066,0.136,0.18,0.173c0.135,0.046,0.271,0.064,0.428,0.064c0.203,0,0.334-0.031,0.449-0.079
										c0.137-0.059,0.195-0.138,0.207-0.248c0.008-0.1-0.068-0.183-0.184-0.229c-0.131-0.056-0.293-0.076-0.473-0.076
										c-0.248,0-0.496,0.044-0.676,0.124c-0.248-0.01-0.475-0.021-0.699-0.038c0.137-0.282,0.293-0.574,0.475-0.861
										c0.744,0,1.486,0,2.252,0c0,0.103,0,0.196,0,0.294c-0.541,0-1.084,0-1.619,0c-0.072,0.096-0.117,0.193-0.16,0.285
										c0.225-0.039,0.406-0.054,0.607-0.054c0.383,0,0.697,0.054,0.945,0.149c0.295,0.111,0.398,0.237,0.387,0.4
										c-0.012,0.136-0.09,0.263-0.295,0.365c-0.314,0.154-0.723,0.218-1.217,0.218c-0.408,0-0.764-0.045-1.014-0.123
										C845.336,179.163,845.197,179.059,845.131,178.919z M835.803,177.682v0.263c-0.107,0.003-0.209,0.019-0.273,0.037
										c-0.09,0.027-0.141,0.077-0.178,0.136c-0.055,0.09-0.09,0.218-0.09,0.411c0,0.199,0.016,0.334,0.064,0.4
										c0.064,0.077,0.113,0.122,0.203,0.146c0.088,0.022,0.186,0.036,0.273,0.038v0.261c-0.42-0.001-0.771-0.063-1.039-0.186
										c-0.27-0.124-0.406-0.342-0.406-0.659c0-0.316,0.166-0.531,0.449-0.675C835.014,177.751,835.361,177.686,835.803,177.682
										L835.803,177.682z M832.318,179.373v-0.261h0.012c0.113,0,0.201-0.018,0.271-0.038c0.086-0.028,0.162-0.068,0.201-0.127
										c0.051-0.085,0.068-0.22,0.068-0.419c0-0.194-0.008-0.321-0.068-0.402c-0.049-0.065-0.135-0.111-0.225-0.145
										c-0.045-0.015-0.15-0.037-0.26-0.037v-0.263c0.445,0.004,0.779,0.058,1.025,0.172c0.297,0.138,0.43,0.363,0.43,0.675
										c0,0.317-0.133,0.545-0.43,0.68c-0.246,0.116-0.561,0.165-0.988,0.165H832.318z M826.752,177.682
										c0.426,0.004,0.781,0.064,1.004,0.172c0.313,0.147,0.451,0.363,0.451,0.675c0,0.317-0.131,0.554-0.404,0.68
										c-0.266,0.123-0.588,0.165-1.016,0.165h-0.035v-0.261h0.035c0.088,0,0.178-0.013,0.27-0.038
										c0.092-0.023,0.148-0.074,0.18-0.127c0.061-0.093,0.08-0.22,0.068-0.419c-0.01-0.193-0.027-0.321-0.09-0.402
										c-0.049-0.065-0.111-0.124-0.182-0.145c-0.084-0.024-0.17-0.037-0.281-0.037V177.682L826.752,177.682z M832.318,177.682
										v0.263h-0.01c-0.09,0-0.184,0.011-0.271,0.037c-0.068,0.021-0.133,0.073-0.178,0.136c-0.066,0.081-0.092,0.218-0.092,0.411
										c0,0.199,0.039,0.336,0.092,0.4c0.061,0.08,0.111,0.122,0.203,0.146c0.084,0.022,0.172,0.038,0.256,0.038v0.261
										c-0.434-0.004-0.785-0.059-1.047-0.186c-0.248-0.12-0.404-0.342-0.404-0.659c0-0.316,0.156-0.546,0.428-0.675
										c0.246-0.116,0.584-0.172,1.014-0.172H832.318L832.318,177.682z M829.131,178.463c0.021-0.101,0.021-0.208,0-0.315
										c0.268,0,0.561,0,0.857,0c0.021,0.107,0,0.215,0,0.315C829.691,178.463,829.398,178.463,829.131,178.463L829.131,178.463z
										 M829.176,179.348c-0.023-0.101,0-0.209-0.023-0.316c0.271,0,0.564,0,0.857,0c0,0.107,0,0.216,0,0.316
										C829.74,179.348,829.445,179.348,829.176,179.348z M826.742,177.682h0.01v0.263h-0.01c-0.113,0-0.178,0.013-0.27,0.037
										c-0.094,0.023-0.145,0.077-0.184,0.136c-0.055,0.09-0.098,0.218-0.086,0.411c0.008,0.199,0.035,0.336,0.086,0.4
										c0.066,0.08,0.117,0.122,0.205,0.146c0.08,0.022,0.16,0.036,0.258,0.038v0.261c-0.434-0.004-0.781-0.068-1.025-0.186
										c-0.266-0.132-0.414-0.342-0.424-0.659c-0.016-0.317,0.137-0.537,0.424-0.675
										C825.957,177.745,826.289,177.682,826.742,177.682z"/>
									<path fill-rule="evenodd" clip-rule="evenodd" fill="#5896CC" d="M815.859,177.372c1.732,0.384,3.469,0.766,5.205,1.145
										c-1.691,0.388-3.381,0.767-5.07,1.147C815.949,178.904,815.904,178.138,815.859,177.372z"/>
								</g>
							</g>
						</g>
					</g>
				</g>
				<g>
					<path opacity="0.2" fill-rule="evenodd" clip-rule="evenodd" fill="#1A1A1A" d="M700.625,300.435h42.389
						c8.041,0,14.619,6.577,14.619,14.615v81.223c0,8.041-6.578,14.616-14.619,14.616l-42.385,0.002
						c-8.039,0-14.619-6.577-14.619-14.618V315.05C686.01,307.012,692.59,300.435,700.625,300.435z"/>
					<g>
						<g>
							<path fill-rule="evenodd" clip-rule="evenodd" fill="#FFFFFF" d="M688.34,289.907h42.385c8.041,0,14.617,6.577,14.617,14.617
								v81.22c0,8.041-6.576,14.62-14.617,14.62H688.34c-8.043,0-14.617-6.577-14.617-14.62l-0.002-81.22
								C673.721,296.484,680.297,289.907,688.34,289.907z"/>
							<rect x="677.939" y="301.445" fill-rule="evenodd" clip-rule="evenodd" fill="#346896" width="63.186" height="83.577"/>
							<path fill-rule="evenodd" clip-rule="evenodd" fill="#CCCCCC" d="M698.92,296.01h21.223c0.576,0,1.051-0.47,1.051-1.049l0,0
								c0-0.579-0.475-1.049-1.051-1.049H698.92c-0.578,0-1.047,0.47-1.047,1.049l0,0C697.873,295.54,698.342,296.01,698.92,296.01z
								"/>
							<path fill-rule="evenodd" clip-rule="evenodd" fill="#CCCCCC" d="M691.654,394.452h35.756c0.893,0,1.625-0.731,1.625-1.629
								l0,0c0-0.892-0.732-1.623-1.625-1.623h-35.756c-0.893,0-1.623,0.731-1.623,1.623l0,0
								C690.031,393.721,690.762,394.452,691.654,394.452z"/>
							<path fill-rule="evenodd" clip-rule="evenodd" fill="#FFFFFF" d="M709.533,386.466c3.514,0,6.359,2.847,6.359,6.357
								c0,3.517-2.846,6.364-6.359,6.364s-6.361-2.848-6.361-6.364C703.172,389.313,706.02,386.466,709.533,386.466z"/>
							<path fill-rule="evenodd" clip-rule="evenodd" fill="#CCCCCC" d="M709.531,388.343c2.475,0,4.484,2.007,4.484,4.48
								c0,2.481-2.01,4.486-4.484,4.486c-2.477,0-4.482-2.005-4.482-4.486C705.049,390.35,707.055,388.343,709.531,388.343z"/>
						</g>
						<rect x="698.219" y="306.186" fill-rule="evenodd" clip-rule="evenodd" fill="#FFC685" width="22.623" height="10.484"/>
						<rect x="683.715" y="319.398" fill-rule="evenodd" clip-rule="evenodd" fill="#FFC685" width="51.631" height="1.843"/>
						<rect x="683.715" y="322.858" fill-rule="evenodd" clip-rule="evenodd" fill="#FFFFFF" width="51.631" height="1.85"/>
						<rect x="683.715" y="327.594" fill-rule="evenodd" clip-rule="evenodd" fill="#FF8800" width="13.965" height="10.482"/>
						<rect x="702.551" y="327.594" fill-rule="evenodd" clip-rule="evenodd" fill="#FFD500" width="13.965" height="10.482"/>
						<rect x="721.385" y="327.594" fill-rule="evenodd" clip-rule="evenodd" fill="#D4453B" width="13.961" height="10.482"/>
						<rect x="683.715" y="340.388" fill-rule="evenodd" clip-rule="evenodd" fill="#FFFFFF" width="13.965" height="1.851"/>
						<rect x="683.715" y="343.851" fill-rule="evenodd" clip-rule="evenodd" fill="#FFFFFF" width="13.965" height="1.852"/>
						<rect x="683.715" y="347.317" fill-rule="evenodd" clip-rule="evenodd" fill="#FFFFFF" width="13.965" height="1.849"/>
						<rect x="683.715" y="350.78" fill-rule="evenodd" clip-rule="evenodd" fill="#FFFFFF" width="13.965" height="1.852"/>
						<rect x="702.551" y="340.388" fill-rule="evenodd" clip-rule="evenodd" fill="#FFFFFF" width="13.965" height="1.851"/>
						<rect x="702.551" y="343.851" fill-rule="evenodd" clip-rule="evenodd" fill="#FFFFFF" width="13.965" height="1.852"/>
						<rect x="702.551" y="347.317" fill-rule="evenodd" clip-rule="evenodd" fill="#FFFFFF" width="13.965" height="1.849"/>
						<rect x="702.551" y="350.78" fill-rule="evenodd" clip-rule="evenodd" fill="#FFFFFF" width="13.965" height="1.852"/>
						<rect x="721.385" y="340.388" fill-rule="evenodd" clip-rule="evenodd" fill="#FFFFFF" width="13.961" height="1.851"/>
						<rect x="721.385" y="343.851" fill-rule="evenodd" clip-rule="evenodd" fill="#FFFFFF" width="13.961" height="1.852"/>
						<rect x="721.385" y="347.317" fill-rule="evenodd" clip-rule="evenodd" fill="#FFFFFF" width="13.961" height="1.849"/>
						<rect x="721.385" y="350.78" fill-rule="evenodd" clip-rule="evenodd" fill="#FFFFFF" width="13.961" height="1.852"/>
						<rect x="683.715" y="356.257" fill-rule="evenodd" clip-rule="evenodd" fill="#FFC685" width="51.631" height="1.847"/>
						<rect x="693.379" y="360.196" fill-rule="evenodd" clip-rule="evenodd" fill="#FFFFFF" width="14.971" height="1.851"/>
						<rect x="693.379" y="363.662" fill-rule="evenodd" clip-rule="evenodd" fill="#FFFFFF" width="14.971" height="1.849"/>
						<rect x="683.715" y="360.196" fill-rule="evenodd" clip-rule="evenodd" fill="#FFD500" width="7.326" height="5.421"/>
						<rect x="720.375" y="360.196" fill-rule="evenodd" clip-rule="evenodd" fill="#FFFFFF" width="14.971" height="1.851"/>
						<rect x="720.375" y="363.662" fill-rule="evenodd" clip-rule="evenodd" fill="#FFFFFF" width="14.971" height="1.849"/>
						<rect x="710.715" y="360.196" fill-rule="evenodd" clip-rule="evenodd" fill="#D4453B" width="7.326" height="5.421"/>
						<rect x="693.379" y="367.809" fill-rule="evenodd" clip-rule="evenodd" fill="#FFFFFF" width="14.971" height="1.849"/>
						<rect x="693.379" y="371.271" fill-rule="evenodd" clip-rule="evenodd" fill="#FFFFFF" width="14.971" height="1.852"/>
						<rect x="683.715" y="367.809" fill-rule="evenodd" clip-rule="evenodd" fill="#FF8800" width="7.326" height="5.418"/>
						<rect x="720.375" y="367.809" fill-rule="evenodd" clip-rule="evenodd" fill="#FFFFFF" width="14.971" height="1.849"/>
						<rect x="720.375" y="371.271" fill-rule="evenodd" clip-rule="evenodd" fill="#FFFFFF" width="14.971" height="1.852"/>
						<rect x="710.715" y="367.809" fill-rule="evenodd" clip-rule="evenodd" fill="#FFD500" width="7.326" height="5.418"/>
						<rect x="693.379" y="375.415" fill-rule="evenodd" clip-rule="evenodd" fill="#FFFFFF" width="14.971" height="1.85"/>
						<rect x="693.379" y="378.881" fill-rule="evenodd" clip-rule="evenodd" fill="#FFFFFF" width="14.971" height="1.849"/>
						<rect x="683.715" y="375.415" fill-rule="evenodd" clip-rule="evenodd" fill="#D4453B" width="7.326" height="5.422"/>
						<rect x="720.375" y="375.415" fill-rule="evenodd" clip-rule="evenodd" fill="#FFFFFF" width="14.971" height="1.85"/>
						<rect x="720.375" y="378.881" fill-rule="evenodd" clip-rule="evenodd" fill="#FFFFFF" width="14.971" height="1.849"/>
						<rect x="710.715" y="375.415" fill-rule="evenodd" clip-rule="evenodd" fill="#FF8800" width="7.326" height="5.422"/>
					</g>
				</g>
				<g>
					<path opacity="0.2" fill-rule="evenodd" clip-rule="evenodd" fill="#1A1A1A" d="M964.285,204.536l25.104-0.002
						c4.756,0,8.652,3.896,8.652,8.655V280.7c0,4.759-3.896,8.655-8.652,8.655h-25.102c-4.76,0-8.658-3.896-8.658-8.652v-67.514
						C955.629,208.43,959.527,204.536,964.285,204.536z"/>
					<g>
						<g>
							<path fill-rule="evenodd" clip-rule="evenodd" fill="#FFFFFF" d="M951.998,194.008l25.096-0.001
								c4.762,0,8.656,3.898,8.656,8.657v67.511c0,4.759-3.895,8.655-8.652,8.655h-25.1c-4.762,0-8.66-3.896-8.66-8.655v-67.511
								C943.338,197.905,947.234,194.008,951.998,194.008z"/>
							<rect x="946.451" y="202.867" fill-rule="evenodd" clip-rule="evenodd" fill="#346896" width="36.227" height="64.182"/>
							<path fill-rule="evenodd" clip-rule="evenodd" fill="#CCCCCC" d="M956.416,198.694l16.297-0.001
								c0.441,0,0.807-0.361,0.807-0.804l0,0c0-0.444-0.365-0.808-0.807-0.808h-16.297c-0.445,0-0.805,0.363-0.805,0.808l0,0
								C955.611,198.332,955.971,198.694,956.416,198.694z"/>
							<path fill-rule="evenodd" clip-rule="evenodd" fill="#CCCCCC" d="M950.836,274.289l27.457-0.001
								c0.686,0,1.246-0.56,1.246-1.247l0,0c0-0.688-0.561-1.25-1.246-1.25h-27.457c-0.689,0-1.248,0.562-1.248,1.25l0,0
								C949.588,273.729,950.146,274.289,950.836,274.289z"/>
							<path fill-rule="evenodd" clip-rule="evenodd" fill="#FFFFFF" d="M964.549,268.155c2.695,0,4.881,2.189,4.881,4.886
								s-2.186,4.884-4.881,4.884c-2.701,0-4.887-2.188-4.887-4.884S961.848,268.155,964.549,268.155z"/>
							<path fill-rule="evenodd" clip-rule="evenodd" fill="#CCCCCC" d="M964.549,269.596c1.898,0,3.439,1.544,3.439,3.445
								c0,1.899-1.541,3.438-3.439,3.443c-1.906,0-3.445-1.544-3.445-3.443C961.104,271.14,962.643,269.596,964.549,269.596z"/>
						</g>
						<g>
							<path fill-rule="evenodd" clip-rule="evenodd" fill="#FF8800" d="M970.736,205.206c-5.438,0-9.844,3.802-9.844,8.494
								c0,2.817,1.588,5.313,4.035,6.858l-1.389,3.506l3.4-2.526c1.168,0.424,2.449,0.656,3.797,0.656
								c5.438,0,9.844-3.802,9.844-8.494S976.174,205.206,970.736,205.206z"/>
							<g>
								<path fill-rule="evenodd" clip-rule="evenodd" fill="#FFFFFF" d="M966.432,215.201c0.732,0,1.332-0.6,1.332-1.335
									c0-0.733-0.6-1.334-1.332-1.334c-0.734,0-1.338,0.601-1.338,1.334C965.094,214.602,965.697,215.201,966.432,215.201z"/>
								<path fill-rule="evenodd" clip-rule="evenodd" fill="#FFFFFF" d="M970.736,215.201c0.736,0,1.334-0.6,1.334-1.335
									c0-0.733-0.598-1.334-1.334-1.334s-1.334,0.601-1.334,1.334C969.402,214.602,970,215.201,970.736,215.201z"/>
								<path fill-rule="evenodd" clip-rule="evenodd" fill="#FFFFFF" d="M975.041,215.201c0.736,0,1.336-0.6,1.336-1.335
									c0-0.733-0.6-1.334-1.336-1.334c-0.734,0-1.334,0.601-1.334,1.334C973.707,214.602,974.307,215.201,975.041,215.201z"/>
							</g>
						</g>
						<g>
							<path fill-rule="evenodd" clip-rule="evenodd" fill="#FFD500" d="M958.428,225.043c5.438,0,9.848,3.802,9.848,8.494
								c0,2.817-1.588,5.313-4.039,6.857l1.387,3.508l-3.398-2.525c-1.168,0.422-2.449,0.653-3.797,0.653
								c-5.436,0-9.846-3.8-9.846-8.493C948.582,228.845,952.992,225.043,958.428,225.043z"/>
							<g>
								<path fill-rule="evenodd" clip-rule="evenodd" fill="#FFFFFF" d="M962.734,235.04c0.736,0,1.338-0.603,1.338-1.335
									c0-0.734-0.602-1.336-1.338-1.336c-0.734,0-1.33,0.602-1.33,1.336C961.404,234.438,962,235.04,962.734,235.04z"/>
								<path fill-rule="evenodd" clip-rule="evenodd" fill="#FFFFFF" d="M958.428,235.04c0.736,0,1.336-0.603,1.336-1.335
									c0-0.734-0.6-1.336-1.336-1.336c-0.732,0-1.332,0.602-1.332,1.336C957.096,234.438,957.695,235.04,958.428,235.04z"/>
								<path fill-rule="evenodd" clip-rule="evenodd" fill="#FFFFFF" d="M954.123,235.04c0.734,0,1.334-0.603,1.334-1.335
									c0-0.734-0.6-1.336-1.334-1.336s-1.334,0.602-1.334,1.336C952.789,234.438,953.389,235.04,954.123,235.04z"/>
							</g>
						</g>
						<g>
							<path fill-rule="evenodd" clip-rule="evenodd" fill="#FFFFFF" d="M970.736,245.639c-5.438,0-9.844,3.803-9.844,8.495
								c0,2.815,1.588,5.31,4.035,6.855l-1.389,3.508l3.4-2.527c1.168,0.424,2.449,0.654,3.797,0.654
								c5.438,0,9.844-3.802,9.844-8.49C980.58,249.441,976.174,245.639,970.736,245.639z"/>
							<g>
								<path fill-rule="evenodd" clip-rule="evenodd" fill="#346896" d="M966.432,255.634c0.732,0,1.332-0.602,1.332-1.334
									c0-0.737-0.6-1.338-1.332-1.338c-0.734,0-1.338,0.601-1.338,1.338C965.094,255.032,965.697,255.634,966.432,255.634z"/>
								<path fill-rule="evenodd" clip-rule="evenodd" fill="#346896" d="M970.736,255.634c0.736,0,1.334-0.602,1.334-1.334
									c0-0.737-0.598-1.338-1.334-1.338s-1.334,0.601-1.334,1.338C969.402,255.032,970,255.634,970.736,255.634z"/>
								<path fill-rule="evenodd" clip-rule="evenodd" fill="#346896" d="M975.041,255.634c0.736,0,1.336-0.602,1.336-1.334
									c0-0.737-0.6-1.338-1.336-1.338c-0.734,0-1.334,0.601-1.334,1.338C973.707,255.032,974.307,255.634,975.041,255.634z"/>
							</g>
						</g>
					</g>
				</g>
			</g>
			<g>
				<g>
					<path fill="#0ABFBC" d="M564.367,231.987v-7.214c1.137-0.763,1.877-2.058,1.877-3.49c0-2.322-1.891-4.211-4.213-4.211h-6.895
						c-2.322,0-4.209,1.889-4.209,4.211c0,1.432,0.738,2.727,1.875,3.489v7.215c-5.658,2.323-9.492,7.933-9.492,14.136
						c0,8.425,6.852,15.278,15.273,15.278c8.424,0,15.277-6.854,15.277-15.278C573.861,239.92,570.027,234.311,564.367,231.987z
						 M558.584,259.38c-7.32,0-13.252-5.936-13.252-13.257c0-6.009,4.004-11.085,9.492-12.706v-1.848h3.908
						c0.258,0,0.459-0.206,0.459-0.457c0-0.253-0.201-0.456-0.459-0.456h-3.908v-1.829h3.908c0.258,0,0.459-0.203,0.459-0.456
						c0-0.251-0.201-0.455-0.459-0.455h-3.908v-1.825h3.908c0.258,0,0.459-0.206,0.459-0.458c0-0.25-0.201-0.456-0.459-0.456h-3.908
						v-1.737c-1.061-0.151-1.875-1.055-1.875-2.155c0-1.21,0.977-2.189,2.188-2.189h6.896c1.213,0,2.188,0.979,2.188,2.189
						c0,1.101-0.814,2.004-1.875,2.155v9.978c5.49,1.622,9.494,6.697,9.494,12.706C571.84,253.444,565.904,259.38,558.584,259.38z"
						/>
					<path fill="#FC354C" d="M567.018,238.528h-16.859c-1.844,2.024-2.969,4.714-2.969,7.665c0,6.296,5.104,11.397,11.396,11.397
						s11.395-5.102,11.395-11.397C569.98,243.242,568.859,240.553,567.018,238.528z M558.967,250.327
						c-0.846,0-1.535-0.688-1.535-1.535c0-0.848,0.689-1.536,1.535-1.536c0.852,0,1.535,0.688,1.535,1.536
						C560.502,249.639,559.818,250.327,558.967,250.327z M564.547,246.286c-1.342,0-2.424-1.085-2.424-2.423
						c0-1.34,1.082-2.426,2.424-2.426c1.336,0,2.422,1.086,2.422,2.426C566.969,245.201,565.883,246.286,564.547,246.286z"/>
					<rect x="539.957" y="296.713" fill="#13747D" width="36.998" height="4.538"/>
					<rect x="554.104" y="293.741" fill="#13747D" width="8.705" height="4.14"/>
					<rect x="569.494" y="292.046" fill="#13747D" width="2.488" height="0.631"/>
					<rect x="571.209" y="291.442" fill="#13747D" width="2.652" height="1.836"/>
					<rect x="573.861" y="290.281" fill="#13747D" width="1.479" height="4.16"/>
					<g>
						<g>
							<path fill="#13747D" d="M559.496,217.42h-2.387v-7.963c0-2.549-2.545-4.87-5.338-4.87h-40.2v-2.388h40.2
								c4.115,0,7.725,3.391,7.725,7.258V217.42z"/>
						</g>
					</g>
					<g opacity="0.2">
						<polygon points="568.125,292.088 546.383,282.99 566.779,273.813 547.822,264.135 548.459,262.889 570.012,273.895 
							549.896,282.943 568.664,290.798 						"/>
					</g>
					<g opacity="0.2">
						<polygon points="548.42,292.088 547.881,290.798 566.65,282.943 546.535,273.895 568.088,262.889 568.725,264.135 
							549.768,273.813 570.162,282.99 						"/>
					</g>
					<path fill="#9B8579" d="M583.592,246.596c-0.293-0.18-0.639-0.285-1.006-0.285s-0.711,0.105-1.006,0.285l1.006,1.702
						L583.592,246.596z"/>
					<g>
						<rect x="547.109" y="260.794" fill="#13747D" width="22.385" height="3.421"/>
						<rect x="569.494" y="262.19" fill="#13747D" width="2.488" height="0.629"/>
						<rect x="571.209" y="261.586" fill="#13747D" width="2.652" height="1.836"/>
						<rect x="573.861" y="260.425" fill="#13747D" width="1.479" height="4.16"/>
					</g>
					<rect x="547.109" y="290.65" fill="#13747D" width="22.385" height="3.421"/>
					<g>
						<g>
							<rect x="573.303" y="246.019" fill="#13747D" width="39.676" height="2.387"/>
						</g>
					</g>
					<circle opacity="0.1" cx="583.158" cy="246.29" r="7.16"/>
					<circle fill="#13747D" cx="583.158" cy="246.29" r="7.16"/>
					<linearGradient id="SVGID_1_" gradientUnits="userSpaceOnUse" x1="577.1738" y1="246.2891" x2="589.1445" y2="246.2891">
						<stop  offset="0" style="stop-color:#F2F5F7"/>
						<stop  offset="0.499" style="stop-color:#D7DEE3"/>
						<stop  offset="0.501" style="stop-color:#E5EBEE"/>
						<stop  offset="1" style="stop-color:#F6F8F9"/>
					</linearGradient>
					<path fill="url(#SVGID_1_)" d="M589.145,246.29c0,3.304-2.682,5.983-5.984,5.983c-3.307,0-5.986-2.68-5.986-5.983
						c0-3.305,2.68-5.984,5.986-5.984C586.463,240.306,589.145,242.985,589.145,246.29z"/>
					<path fill="#0ABFBC" d="M583.16,240.719c-1.506,0-2.869,0.609-3.855,1.596l1.455,1.458c0.615-0.613,1.463-0.993,2.4-0.993
						V240.719z"/>
					<path opacity="0.3" fill="#9B8579" d="M577.707,246.169h2.061c0-0.936,0.381-1.783,0.992-2.396l-1.455-1.458
						C578.316,243.301,577.707,244.664,577.707,246.169z"/>
					<path fill="#FBE362" d="M583.16,240.719v2.061c0.934,0,1.781,0.38,2.398,0.993l1.455-1.458
						C586.027,241.328,584.664,240.719,583.16,240.719z"/>
					<path fill="#FC354C" d="M588.609,246.169c0-1.505-0.607-2.868-1.596-3.854l-1.455,1.458c0.611,0.613,0.99,1.461,0.99,2.396
						H588.609z"/>
					<path d="M583.16,245.749c-0.012,0-0.021,0.002-0.031,0.003l-1.027-2.209l0.789,2.305c-0.092,0.077-0.152,0.192-0.152,0.321
						c0,0.232,0.188,0.42,0.422,0.42c0.232,0,0.418-0.188,0.418-0.42S583.393,245.749,583.16,245.749z"/>
				</g>
				<g>
					<path fill="#13747D" d="M511.175,221.987h-29.029c-1.2,0-2.175,0.807-2.175,1.804v1.199c0,0.996,0.975,1.802,2.175,1.802
						h29.029c1.201,0,2.178-0.806,2.178-1.802v-1.199C513.353,222.794,512.375,221.987,511.175,221.987z"/>
					<path fill="#13747D" d="M511.175,227.421h-29.029c-1.2,0-2.175,0.808-2.175,1.804v1.198c0,0.996,0.975,1.802,2.175,1.802
						h29.029c1.201,0,2.178-0.806,2.178-1.802v-1.198C513.353,228.229,512.375,227.421,511.175,227.421z"/>
					<path fill="#13747D" d="M511.175,232.856h-29.029c-1.2,0-2.175,0.803-2.175,1.801v1.201c0,0.995,0.975,1.801,2.175,1.801
						h29.029c1.201,0,2.178-0.806,2.178-1.801v-1.201C513.353,233.659,512.375,232.856,511.175,232.856z"/>
					<path fill="#13747D" d="M485.775,238.288h21.771c0,3.604-5.805,6.005-10.885,6.005
						C491.581,244.293,485.775,241.892,485.775,238.288z"/>
				</g>
				<g>
					<path fill="#FBE362" d="M475.37,150.032c-0.239,0-0.479-0.091-0.662-0.273l-12.473-12.472c-0.365-0.366-0.365-0.958,0-1.324
						c0.366-0.364,0.958-0.364,1.324,0l12.471,12.473c0.366,0.363,0.366,0.956,0,1.323
						C475.849,149.941,475.608,150.032,475.37,150.032z"/>
				</g>
				<g>
					<path fill="#FBE362" d="M517.171,150.032c-0.237,0-0.478-0.091-0.66-0.273c-0.366-0.367-0.366-0.96,0-1.323l13.252-13.253
						c0.366-0.365,0.959-0.365,1.325,0c0.365,0.365,0.365,0.959,0,1.323l-13.254,13.253
						C517.65,149.941,517.413,150.032,517.171,150.032z"/>
				</g>
				<g>
					<path fill="#FBE362" d="M496.536,145.988c-0.517,0-0.936-0.42-0.936-0.937v-18.403c0-0.517,0.419-0.937,0.936-0.937
						c0.516,0,0.936,0.42,0.936,0.937v18.403C497.472,145.57,497.054,145.988,496.536,145.988z"/>
				</g>
				<path fill="#FFFFFF" d="M496.587,151.457c13.142,0,23.833,10.69,23.833,23.831c0,4.095-1.076,8.109-3.197,11.932
					c-6.257,11.272-8.255,17.981-9.448,25.15c-0.134,0.798-0.539,3.229-1.265,3.998c-0.25,0.265-0.742,0.535-2.495,0.535h-7.429
					h-7.427c-1.754,0-2.244-0.271-2.495-0.535c-0.728-0.769-1.132-3.199-1.265-3.997c-1.193-7.167-3.189-13.874-9.448-25.148
					c-2.12-3.831-3.195-7.846-3.195-11.935C472.758,162.147,483.448,151.457,496.587,151.457 M496.587,149.097
					c-14.462,0-26.19,11.726-26.19,26.191c0,4.762,1.338,9.188,3.491,13.077c6.433,11.588,8.136,18.095,9.184,24.393
					c0.879,5.279,2.1,6.505,6.088,6.505c1.696,0,4.473,0,7.427,0c2.956,0,5.734,0,7.429,0c3.99,0,5.207-1.228,6.088-6.505
					c1.048-6.298,2.751-12.807,9.183-24.393c2.156-3.887,3.493-8.315,3.493-13.077C522.78,160.822,511.052,149.097,496.587,149.097
					L496.587,149.097z"/>
				<path stroke="#FFFFFF" stroke-width="2.3599" stroke-miterlimit="10" d="M446.069,303.756"/>
				<g id="Your_Icon_1_">
					<polygon fill="#FC354C" points="517.357,298.955 536.482,298.955 532.268,286.757 521.576,286.757 					"/>
					<path fill="#13747D" d="M532.699,275.395v-5.559h0.896c0.961,0,1.736-0.751,1.736-1.709c0-0.959-0.775-1.709-1.736-1.709
						h-13.353c-0.958,0-1.736,0.75-1.736,1.709c0,0.958,0.778,1.709,1.736,1.709h1.063v5.559l-8.544,24.543v0.088
						c0,0.924,0.596,1.654,1.223,2.145c0.635,0.501,1.543,0.705,2.398,0.705h21.074c0.855,0,1.564-0.204,2.195-0.705
						c0.631-0.49,1.023-1.221,1.023-2.145v-0.09L532.699,275.395z M515.772,300.025l8.381-24.631v-5.559h5.699v5.559l8.316,24.635
						L515.772,300.025z"/>
					<g>
						<path fill="#FFFFFF" d="M524.337,250.496c-1.626,0-2.948-1.322-2.948-2.946c0-1.628,1.322-2.95,2.948-2.95
							s2.948,1.322,2.948,2.95C527.286,249.174,525.963,250.496,524.337,250.496z M524.337,246.961c-0.324,0-0.59,0.264-0.59,0.589
							c0,0.323,0.266,0.586,0.59,0.586c0.324,0,0.588-0.263,0.588-0.586C524.925,247.225,524.662,246.961,524.337,246.961z"/>
					</g>
					<g>
						<path fill="#FFFFFF" d="M523.386,265.053c-2.977,0-5.398-2.423-5.398-5.399c0-2.975,2.421-5.396,5.398-5.396
							c2.974,0,5.396,2.421,5.396,5.396C528.781,262.63,526.36,265.053,523.386,265.053z M523.386,256.617
							c-1.674,0-3.037,1.362-3.037,3.036c0,1.675,1.362,3.038,3.037,3.038c1.675,0,3.035-1.363,3.035-3.038
							C526.421,257.979,525.061,256.617,523.386,256.617z"/>
					</g>
					<g>
						<path fill="#FFFFFF" d="M532.226,257.434c-2.149,0-3.898-1.749-3.898-3.9c0-2.15,1.749-3.901,3.898-3.901
							c2.151,0,3.901,1.751,3.901,3.901C536.127,255.685,534.377,257.434,532.226,257.434z M532.226,251.993
							c-0.847,0-1.539,0.691-1.539,1.54c0,0.85,0.692,1.539,1.539,1.539c0.851,0,1.542-0.689,1.542-1.539
							C533.768,252.685,533.076,251.993,532.226,251.993z"/>
					</g>
				</g>
				<rect x="483.654" y="259.655" fill="#FC354C" width="7.67" height="6.763"/>
				<rect x="491.25" y="247.548" fill="#0ABFBC" width="11.21" height="28.078"/>
				<rect x="488.153" y="247.548" fill="#0ABFBC" width="17.405" height="1.769"/>
				<rect x="493.095" y="275.626" fill="#13747D" width="7.078" height="27.249"/>
				<rect x="500.173" y="290.187" fill="#13747D" width="15.984" height="12.688"/>
				<rect x="504.617" y="283.236" fill="#FBE362" width="7.794" height="6.95"/>
				<rect x="502.294" y="283.236" fill="#FBE362" width="12.441" height="3.22"/>
				<g>
					<g>
						<path fill="#FBE362" d="M507.076,269.981v-1.181c1.017,0,1.844-0.826,1.844-1.845v-9.084c0-1.018-0.827-1.845-1.844-1.845
							h-1.263v-1.179h1.263c1.667,0,3.023,1.356,3.023,3.023v9.084C510.099,268.625,508.743,269.981,507.076,269.981z"/>
					</g>
				</g>
				<g>
					<rect x="457.733" y="261.865" fill="#FC354C" width="25.921" height="2.341"/>
				</g>
				<rect x="502.46" y="253.533" fill="#FCF7C5" width="5.086" height="4.924"/>
				<rect x="502.46" y="266.418" fill="#0ABFBC" width="5.086" height="4.923"/>
				<circle fill="none" stroke="#13747D" stroke-width="2.5" stroke-miterlimit="10" cx="623.342" cy="247.213" r="10.363"/>
				<g>
					<circle fill="none" cx="496.536" cy="175.252" r="19.487"/>
					<path fill="#FFFFFF" d="M512.764,170.231c-0.097-0.358-0.465-0.573-0.824-0.475l-1.524,0.409
						c-0.248-0.785-0.563-1.547-0.941-2.28l1.364-0.788c0.322-0.186,0.432-0.597,0.246-0.918c-0.186-0.322-0.597-0.433-0.917-0.246
						l-1.375,0.794c-0.45-0.703-0.945-1.363-1.491-1.963l1.114-1.113c0.263-0.263,0.263-0.688,0-0.95
						c-0.263-0.264-0.688-0.264-0.95,0l-1.111,1.11c-0.614-0.559-1.273-1.054-1.963-1.494l0.791-1.367
						c0.185-0.322,0.076-0.732-0.246-0.918c-0.322-0.187-0.734-0.076-0.918,0.245l-0.792,1.373
						c-0.733-0.379-1.495-0.688-2.279-0.937l0.412-1.537c0.097-0.358-0.116-0.728-0.475-0.824c-0.361-0.098-0.727,0.117-0.823,0.476
						l-0.412,1.538c-0.801-0.177-1.616-0.289-2.44-0.329v-1.585c0-0.371-0.3-0.672-0.672-0.672c-0.371,0-0.672,0.301-0.672,0.672
						v1.581c-0.818,0.036-1.636,0.136-2.447,0.313l-0.406-1.518c-0.096-0.358-0.463-0.573-0.824-0.476
						c-0.358,0.097-0.571,0.465-0.475,0.824l0.407,1.521c-0.773,0.246-1.531,0.57-2.273,0.954l-0.793-1.374
						c-0.186-0.322-0.596-0.432-0.917-0.245c-0.322,0.186-0.431,0.597-0.246,0.918l0.788,1.363c-0.699,0.447-1.353,0.95-1.955,1.503
						l-1.116-1.115c-0.263-0.264-0.688-0.264-0.95,0c-0.263,0.263-0.263,0.688,0,0.95l1.118,1.118
						c-0.554,0.61-1.055,1.265-1.497,1.957l-1.373-0.792c-0.322-0.187-0.732-0.076-0.918,0.246
						c-0.185,0.322-0.075,0.732,0.246,0.918l1.375,0.793c-0.376,0.729-0.692,1.49-0.943,2.277l-1.532-0.412
						c-0.357-0.098-0.727,0.117-0.824,0.475c-0.096,0.359,0.117,0.728,0.476,0.823l1.533,0.412c-0.227,1.031-0.35,2.093-0.347,3.172
						c0,0.371,0.302,0.67,0.672,0.67c0.001,0,0.001,0,0.002,0c0.372-0.001,0.671-0.303,0.67-0.674
						c-0.01-3.336,1.245-6.505,3.411-8.915l5.086,5.087c-0.514,0.643-0.897,1.389-1.117,2.208c-0.418,1.561-0.204,3.19,0.604,4.589
						c1.079,1.865,3.087,3.024,5.243,3.024c1.056,0,2.1-0.28,3.019-0.811c1.399-0.808,2.399-2.111,2.817-3.672
						c0.419-1.56,0.204-3.189-0.603-4.589c-0.154-0.265-0.33-0.511-0.518-0.746l5.097-5.097c0.613,0.679,1.167,1.429,1.642,2.251
						c1.165,2.017,1.773,4.322,1.761,6.67c-0.002,0.37,0.297,0.673,0.668,0.675c0,0,0.001,0,0.003,0c0.37,0,0.67-0.299,0.672-0.669
						c0.005-1.073-0.113-2.137-0.338-3.175l1.527-0.41C512.647,170.959,512.859,170.591,512.764,170.231z M496.532,168.532
						c-1.056,0-2.1,0.281-3.019,0.812c-0.265,0.153-0.51,0.329-0.746,0.516l-5.093-5.093c0.684-0.619,1.433-1.175,2.248-1.646
						c5.089-2.938,11.336-2.095,15.481,1.644l-5.097,5.098C499.246,169.02,497.922,168.532,496.532,168.532z M501.079,175.798
						c-0.325,1.214-1.103,2.228-2.191,2.855c-0.714,0.412-1.526,0.631-2.347,0.631c-1.678,0-3.24-0.901-4.077-2.353
						c-0.628-1.088-0.795-2.355-0.47-3.569c0.325-1.213,1.104-2.227,2.191-2.855c0.714-0.412,1.526-0.63,2.347-0.63
						c1.678,0,3.24,0.901,4.077,2.352C501.237,173.317,501.404,174.584,501.079,175.798z"/>
					<path fill="#C7CAC7" d="M494.52,187.012h-1.483c-0.011,0-0.019,0.006-0.029,0.006c-0.081-1.146-0.374-2.289-0.901-3.375
						c0.008-0.005,0.018-0.006,0.025-0.011l1.285-0.741c0.321-0.186,0.431-0.597,0.246-0.919c-0.186-0.321-0.598-0.432-0.918-0.246
						l-1.284,0.742c-0.011,0.006-0.017,0.017-0.026,0.023c-0.676-1-1.518-1.828-2.469-2.472c0.006-0.009,0.015-0.017,0.021-0.025
						l0.742-1.284c0.185-0.322,0.075-0.732-0.246-0.918c-0.322-0.186-0.732-0.076-0.918,0.246l-0.742,1.283
						c-0.004,0.008-0.004,0.017-0.008,0.024c-1.057-0.513-2.206-0.819-3.377-0.905c0-0.009,0.004-0.016,0.004-0.024v-1.483
						c0-0.372-0.301-0.672-0.672-0.672c-0.371,0-0.672,0.3-0.672,0.672v1.482c0,0.012,0.006,0.021,0.006,0.033
						c-1.356,0.097-2.712,0.483-3.969,1.209c-0.483,0.278-0.923,0.601-1.335,0.946c0.572,2.002,1.457,3.872,2.595,5.555
						c0.309-0.683,0.822-1.281,1.521-1.686c1.773-1.023,4.041-0.415,5.065,1.357c1.024,1.773,0.416,4.04-1.357,5.064
						c-0.137,0.08-0.277,0.146-0.419,0.205c1.654,1.187,3.5,2.122,5.484,2.746c1.371-1.539,2.168-3.481,2.318-5.496
						c0.012,0,0.021,0.006,0.032,0.006h1.481c0.371,0,0.672-0.3,0.672-0.672C495.192,187.313,494.891,187.012,494.52,187.012z"/>
					<path fill="#ED7161" d="M509.969,178.112c0-0.011,0.007-0.021,0.007-0.033v-1.482c0-0.372-0.301-0.672-0.672-0.672
						c-0.371,0-0.672,0.3-0.672,0.672v1.482c0,0.012,0.005,0.02,0.006,0.029c-1.146,0.082-2.291,0.375-3.378,0.902
						c-0.004-0.009-0.004-0.018-0.008-0.025l-0.742-1.285c-0.186-0.321-0.597-0.432-0.918-0.246s-0.431,0.597-0.246,0.918
						l0.743,1.284c0.005,0.011,0.015,0.018,0.021,0.027c-1,0.676-1.828,1.519-2.47,2.47c-0.009-0.006-0.015-0.016-0.025-0.021
						l-1.284-0.742c-0.323-0.187-0.731-0.076-0.918,0.246c-0.186,0.321-0.076,0.732,0.246,0.918l1.284,0.741
						c0.007,0.004,0.015,0.006,0.022,0.01c-0.511,1.058-0.818,2.204-0.904,3.376c-0.009,0-0.016-0.004-0.025-0.004h-1.483
						c-0.371,0-0.671,0.3-0.671,0.671c0,0.372,0.3,0.672,0.671,0.672h1.483c0.012,0,0.021-0.005,0.033-0.007
						c0.097,1.356,0.483,2.713,1.209,3.969c0.383,0.664,0.841,1.253,1.35,1.782c2.014-0.662,3.88-1.648,5.545-2.892
						c-0.847-0.271-1.6-0.841-2.079-1.671c-1.024-1.773-0.416-4.041,1.356-5.064c1.773-1.024,4.041-0.417,5.065,1.357
						c0.101,0.174,0.18,0.353,0.25,0.534c1.148-1.726,2.034-3.642,2.586-5.696C513.83,179.023,511.934,178.259,509.969,178.112z"/>
				</g>
				<circle fill="#FFFFFF" cx="623.342" cy="247.211" r="5.527"/>
				
					<polyline fill="none" stroke="#FFFFFF" stroke-width="2" stroke-linecap="round" stroke-linejoin="round" stroke-miterlimit="10" points="
					637.889,164.259 623.342,164.259 623.342,330.163 637.889,330.163 				"/>
				
					<line fill="none" stroke="#FFFFFF" stroke-width="2" stroke-linecap="round" stroke-linejoin="round" stroke-miterlimit="10" x1="664.494" y1="246.589" x2="623.342" y2="246.589"/>
			</g>
			
				<polyline fill="none" stroke="#FFD500" stroke-linecap="round" stroke-linejoin="round" stroke-miterlimit="10" stroke-dasharray="8,7" points="
				339.813,97.646 380.108,97.646 446.069,263.422 			"/>
			
				<polyline fill="none" stroke="#79BA6C" stroke-linecap="round" stroke-linejoin="round" stroke-miterlimit="10" stroke-dasharray="8,7" points="
				293.411,159.869 349.374,159.869 399.667,265.83 440.55,265.83 			"/>
			
				<polyline fill="none" stroke="#3DA4D8" stroke-linecap="round" stroke-linejoin="round" stroke-miterlimit="10" stroke-dasharray="8,7" points="
				291.856,321.141 390.961,321.141 427.635,263.035 459.147,263.035 			"/>
			
				<polyline fill="none" stroke="#F05916" stroke-linecap="round" stroke-linejoin="round" stroke-miterlimit="10" stroke-dasharray="8,7" points="
				446.069,269.981 377.525,429.075 224.833,429.075 			"/>
			<circle fill="#FFD500" cx="338.884" cy="97.66" r="2.945"/>
			<circle fill="#79BA6C" cx="293.411" cy="160.069" r="2.945"/>
			<circle fill="#3DA4D8" cx="291.856" cy="321.142" r="2.945"/>
			<circle fill="#F05916" cx="224.832" cy="429.076" r="2.945"/>
			<circle fill="none" stroke="#FFFFFF" stroke-width="2" stroke-miterlimit="10" cx="71.907" cy="202.995" r="5.131"/>
			<circle fill="none" stroke="#FFFFFF" stroke-width="2" stroke-miterlimit="10" cx="210.294" cy="283.058" r="5.131"/>
			<circle fill="none" stroke="#FFFFFF" stroke-width="2" stroke-miterlimit="10" cx="210.454" cy="201.077" r="5.131"/>
			<circle fill="none" stroke="#FFFFFF" stroke-width="2" stroke-miterlimit="10" cx="280.956" cy="163.014" r="5.131"/>
		</g>
		<g>
			<path fill="#FF9811" d="M68.616,122.082c0,0-2.094-4.031-2.016-6.985c0.056-2.103,4.804-4.189,6.671-7.213
				c1.867-3.032-0.228-5.978-0.228-5.978s0.463,2.173-0.78,4.425c-1.236,2.244-5.82,3.567-7.607,7.449
				C62.876,117.663,68.616,122.082,68.616,122.082z"/>
			<path fill="#FF9811" d="M76.46,109.82c0,0-7.143,2.716-7.143,5.818c0,3.111,1.938,4.119,2.252,5.127
				c0.309,1.009-0.542,2.718-0.542,2.718s2.794-1.946,2.322-4.189c-0.463-2.252-2.639-2.953-1.393-5.205
				C72.791,112.585,76.46,109.82,76.46,109.82z"/>
			<path fill="#FF9811" d="M67.846,126.185c6.599-0.235,9-2.315,9-2.315c-4.268,1.165-15.6,1.086-15.679,0.235
				c-0.079-0.856,3.49-1.559,3.49-1.559s-5.584,0-6.048,1.401C58.143,125.342,61.245,126.421,67.846,126.185z"/>
			<path fill="#FF9811" d="M77.39,129.461c0,0,6.457-1.379,5.82-4.891c-0.773-4.268-5.278-1.858-5.278-1.858s3.183,0,3.489,1.938
				C81.736,126.586,77.39,129.461,77.39,129.461z"/>
			<path fill="#FF9811" d="M74.208,127.595c0,0-1.631,0.433-4.04,0.701c-3.23,0.36-7.143,0.078-7.449-0.466
				c-0.31-0.542,0.542-0.858,0.542-0.858c-3.883,0.937-1.756,2.56,2.789,2.875c3.905,0.268,9.709-1.166,9.709-1.166L74.208,127.595z
				"/>
			<path fill="#FF9811" d="M64.198,130.989c0,0-1.763,0.046-1.867,0.976c-0.103,0.93,1.087,1.764,5.434,2.017
				c4.349,0.26,7.395-1.182,7.395-1.182l-1.96-1.198c0,0-1.244,0.261-3.159,0.521c-1.913,0.261-5.843-0.205-5.999-0.566
				C63.885,131.192,64.198,130.989,64.198,130.989z"/>
			<path fill="#FF9811" d="M67.042,137.612c9.308-0.008,13.405-1.71,14.074-2.434c0.669-0.726-0.214-1.292-0.214-1.292
				s0.315,0.362-0.094,0.771c-0.418,0.418-4.197,1.45-10.254,1.756c-6.048,0.315-12.623-0.566-12.829-1.338
				c-0.206-0.78,3.363-1.401,3.363-1.401c-0.41,0.054-5.379,0.156-5.536,1.504C55.395,136.525,57.725,137.612,67.042,137.612z"/>
			<path fill="#FF9811" d="M77.493,138.233c-4.088,0.82-16.507,0.3-16.507,0.3s8.072,1.922,17.286,0.314
				c4.403-0.772,4.655-2.899,4.655-2.899S81.579,137.398,77.493,138.233z"/>
		</g>
		<g>
			<path fill="#3DA4D8" d="M290.914,244.197c-0.05-5.091,4.152-7.532,4.339-7.653c-2.361-3.455-6.039-3.929-7.35-3.983
				c-3.13-0.316-6.107,1.843-7.696,1.843c-1.584,0-4.036-1.796-6.632-1.748c-3.412,0.05-6.558,1.983-8.314,5.039
				c-3.545,6.151-0.908,15.263,2.547,20.251c1.688,2.442,3.701,5.186,6.345,5.087c2.544-0.102,3.507-1.646,6.584-1.646
				c3.077,0,3.942,1.646,6.635,1.597c2.739-0.051,4.475-2.489,6.151-4.938c1.939-2.833,2.737-5.575,2.784-5.717
				C296.247,252.3,290.967,250.277,290.914,244.197z M285.853,229.259c1.403-1.702,2.35-4.063,2.091-6.419
				c-2.021,0.082-4.47,1.346-5.919,3.044c-1.301,1.507-2.44,3.911-2.135,6.219C282.146,232.278,284.448,230.956,285.853,229.259z"/>
		</g>
		<g>
			<path fill="#91DC5A" d="M123.04,253.741h0.108c1.417,0,2.566-1.158,2.566-2.569v-11.171c0-1.409-1.158-2.567-2.566-2.567h-0.108
				c-1.417,0-2.566,1.159-2.566,2.567v11.171C120.474,252.583,121.623,253.741,123.04,253.741z"/>
			<path fill="#91DC5A" d="M126.943,255.48c0,1.302,1.06,2.352,2.362,2.352h2.52v6.041c0,1.417,1.148,2.564,2.568,2.564h0.106
				c1.42,0,2.569-1.157,2.569-2.564v-6.041h3.526v6.041c0,1.417,1.159,2.564,2.566,2.564h0.108c1.418,0,2.566-1.157,2.566-2.564
				v-6.041h2.523c1.291,0,2.359-1.05,2.359-2.352v-17.633h-23.773V255.48z"/>
			<path fill="#91DC5A" d="M150.763,236.779c0.016-0.235,0.035-0.467,0.035-0.701c0-3.822-2.44-7.161-6.049-8.93l2.002-3.094
				c0.125-0.189,0.071-0.458-0.126-0.584c-0.197-0.137-0.457-0.081-0.583,0.126l-2.081,3.193c-1.553-0.637-3.294-0.995-5.125-0.995
				c-1.841,0-3.58,0.358-5.133,0.995l-2.074-3.193c-0.125-0.207-0.394-0.263-0.591-0.126c-0.197,0.126-0.252,0.395-0.126,0.584
				l2,3.094c-3.606,1.769-6.048,5.107-6.048,8.93c0,0.234,0.018,0.466,0.037,0.701H150.763z M144.362,230.39
				c0.639,0,1.149,0.501,1.149,1.14c0,0.636-0.511,1.149-1.149,1.149c-0.636,0-1.148-0.514-1.148-1.149
				C143.213,230.891,143.726,230.39,144.362,230.39z M133.297,230.39c0.636,0,1.149,0.501,1.149,1.14
				c0,0.636-0.513,1.149-1.149,1.149c-0.637,0-1.148-0.514-1.148-1.149C132.149,230.891,132.661,230.39,133.297,230.39z"/>
			<path fill="#91DC5A" d="M154.512,253.741h0.108c1.417,0,2.566-1.158,2.566-2.569v-11.171c0-1.409-1.156-2.567-2.566-2.567h-0.108
				c-1.417,0-2.566,1.159-2.566,2.567v11.171C151.946,252.583,153.103,253.741,154.512,253.741z"/>
		</g>
		<g id="Layer_2_1_">
			<g>
				<path fill="#C1C1C1" d="M232.981,177.587c1.298,0,2.163,0.239,2.596,0.719c0.432,0.479,0.535,1.302,0.309,2.467
					c-0.236,1.214-0.691,2.08-1.365,2.599c-0.674,0.52-1.7,0.779-3.077,0.779h-2.078l1.275-6.563H232.981z M224.658,190.794h3.416
					l0.81-4.169h2.927c1.291,0,2.353-0.136,3.187-0.407c0.834-0.271,1.592-0.726,2.274-1.364c0.573-0.526,1.035-1.106,1.39-1.742
					c0.355-0.633,0.606-1.334,0.755-2.099c0.362-1.859,0.089-3.307-0.817-4.345c-0.906-1.037-2.348-1.557-4.324-1.557h-6.569
					L224.658,190.794z"/>
				<path fill="#C1C1C1" d="M241.925,170.943h3.389l-0.81,4.168h3.019c1.9,0,3.209,0.332,3.931,0.994
					c0.721,0.663,0.938,1.737,0.649,3.222l-1.418,7.298h-3.444l1.349-6.939c0.154-0.789,0.097-1.327-0.169-1.614
					c-0.267-0.287-0.833-0.431-1.701-0.431h-2.709l-1.746,8.984h-3.39L241.925,170.943z"/>
				<path fill="#C1C1C1" d="M259.644,177.587c1.298,0,2.163,0.239,2.596,0.719c0.432,0.479,0.535,1.302,0.309,2.467
					c-0.236,1.214-0.691,2.08-1.365,2.599c-0.674,0.52-1.699,0.779-3.077,0.779h-2.078l1.276-6.563H259.644z M251.321,190.794h3.417
					l0.81-4.169h2.926c1.291,0,2.353-0.136,3.188-0.407c0.834-0.271,1.591-0.726,2.273-1.364c0.572-0.526,1.036-1.106,1.39-1.742
					c0.354-0.633,0.606-1.334,0.755-2.099c0.362-1.859,0.089-3.307-0.817-4.345c-0.906-1.037-2.348-1.557-4.324-1.557h-6.569
					L251.321,190.794z"/>
			</g>
		</g>
		<g>
			<g>
				<polygon fill="#F05916" points="210.293,339.064 191.981,350.395 191.981,370.461 196.851,373.343 196.851,353.179 
					210.293,344.825 223.736,353.179 223.736,373.343 228.606,370.461 228.606,350.395 				"/>
				<polygon fill="#F05916" points="213.215,375.551 210.293,377.278 207.372,375.551 207.372,352.219 201.819,355.579 
					201.819,376.51 210.293,381.792 218.768,376.51 218.768,355.579 213.215,352.219 				"/>
			</g>
		</g>
		<text transform="matrix(1 0 0 1 81.355 309.1514)" fill="#C1C1C1" font-family="'Calibri-Bold'" font-size="17.7737">UI/UX</text>
		<text transform="matrix(1 0 0 1 192.2505 130.9897)" fill="#C1C1C1" font-family="'Calibri-Bold'" font-size="17.7737">.net</text>
		<g>
			<g>
				<path fill="#FFD500" d="M294.283,114.963h-1.675c-0.275-1.474-0.849-2.845-1.66-4.035l1.176-1.176
					c0.439-0.439,0.439-1.154,0-1.594l-1.228-1.229c-0.439-0.438-1.154-0.438-1.593,0l-1.169,1.169
					c-1.191-0.819-2.561-1.399-4.042-1.683v-1.637c0-0.619-0.506-1.125-1.125-1.125h-1.735c-0.618,0-1.124,0.506-1.124,1.125v1.645
					c-1.474,0.282-2.844,0.864-4.042,1.683l-1.169-1.169c-0.439-0.439-1.154-0.439-1.593,0l-1.228,1.228
					c-0.439,0.439-0.439,1.154,0,1.594l1.176,1.177c-0.812,1.19-1.385,2.561-1.66,4.035h-1.667c-0.618,0-1.125,0.506-1.125,1.124
					v1.734c0,0.618,0.506,1.124,1.125,1.124h1.69c0.283,1.467,0.863,2.822,1.675,4.006l-1.206,1.205
					c-0.439,0.439-0.439,1.154,0,1.594l1.229,1.229c0.438,0.439,1.153,0.439,1.593,0l1.213-1.214
					c0.417,0.282,0.849,0.536,1.303,0.76v-3.991c-1.616-1.339-2.636-3.364-2.636-5.628c0-4.042,3.276-7.325,7.326-7.325
					c4.042,0,7.326,3.275,7.326,7.325c0,2.264-1.027,4.289-2.636,5.628v3.991c0.455-0.224,0.894-0.478,1.303-0.76l1.213,1.214
					c0.439,0.439,1.154,0.439,1.594,0l1.228-1.229c0.439-0.439,0.439-1.154,0-1.594l-1.206-1.205
					c0.811-1.184,1.392-2.539,1.675-4.006h1.69c0.618,0,1.124-0.506,1.124-1.124v-1.741
					C295.407,115.469,294.901,114.963,294.283,114.963z"/>
				<path fill="#FFD500" d="M285,112.945c-0.193-0.141-0.461-0.008-0.461,0.23v2.093c0,0.99-0.804,1.794-1.794,1.794h-1.28
					c-0.99,0-1.794-0.804-1.794-1.794v-2.093c0-0.238-0.269-0.371-0.462-0.23c-1.199,0.886-1.98,2.315-1.98,3.924
					c0,1.578,0.751,2.978,1.913,3.871c0.514,0.395,0.812,0.997,0.812,1.646v15.604c0,1.184,0.968,2.145,2.152,2.145
					c1.191,0,2.151-0.961,2.151-2.145v-15.612c0-0.646,0.298-1.25,0.812-1.645c1.161-0.894,1.914-2.293,1.914-3.872
					C286.98,115.261,286.206,113.831,285,112.945z M282.729,137.714c0,0.342-0.284,0.626-0.625,0.626
					c-0.343,0-0.625-0.284-0.625-0.626V121.79c0-0.343,0.282-0.625,0.625-0.625c0.342,0,0.625,0.282,0.625,0.625V137.714z"/>
			</g>
		</g>
		<g>
			<g>
				<polygon fill="#EF3F3F" points="218.396,228.322 216.387,230.6 218.974,231.304 				"/>
				<polygon fill="#EF3F3F" points="219.286,233.722 214.917,232.532 212.881,240.009 217.574,240.009 				"/>
				<path fill="#EF3F3F" d="M201.097,236.229c-0.228,0-0.484-0.013-0.759-0.035l0.788,3.815h2.261l-0.834-4.038
					C202.095,236.19,201.541,236.229,201.097,236.229z"/>
				<rect x="207.323" y="227.164" fill="#EF3F3F" width="4.468" height="12.845"/>
				<path fill="#EF3F3F" d="M199.504,240.566v14.551c0,1.984,1.609,3.593,3.594,3.593h13.476c1.984,0,3.594-1.608,3.594-3.593
					v-14.551H199.504z"/>
				<path fill="#EF3F3F" d="M200.83,235.663c0.091,0.003,0.183,0.007,0.268,0.007c0.611,0,1.045-0.094,1.332-0.28
					c1.09-0.714-0.062-2.873-2.832-7.248c0-0.002-3.072,7.165,0.745,7.492C200.515,235.649,200.675,235.658,200.83,235.663z"/>
			</g>
		</g>
		<g>
			<path fill="#FF8800" d="M110.004,198.025c-0.598-0.439-0.662-1.1-0.662-1.1l-0.225-1.433h-7.143l-0.225,1.432
				c0,0-0.062,0.661-0.66,1.101c-0.597,0.438-1.068,0.815-0.597,0.88c0.455,0.063,4.738,0.006,5.054,0
				c0.317,0.006,4.6,0.063,5.054,0C111.072,198.842,110.6,198.466,110.004,198.025z"/>
			<g>
				<path fill="#91DC5A" d="M97.501,186.58c1.909-0.016,2.146-0.476,2.768-2.392c1.147-3.024,6.314,0.791,3.111,2.115
					C100.179,187.63,95.592,186.594,97.501,186.58z"/>
				<path fill="#91DC5A" d="M117.069,166.652c-0.927-0.746-2.46-0.378-3.427,0.821l-9.791,13.91
					c-0.967,1.199-0.962,0.97-0.037,1.716c0.926,0.746,0.704,0.8,1.67-0.399l11.51-12.524
					C117.961,168.976,117.995,167.399,117.069,166.652z M114.551,168.318c0,0-0.144-0.167-0.62-0.548
					c0.715-1.169,2.12-0.954,2.12-0.954C114.719,167.603,114.551,168.318,114.551,168.318z"/>
			</g>
			<path fill="#FF8800" d="M121.411,171.354h-4.305l-1.902,2.068h5.518v16.554H90.374v-16.554h17.653l1.458-2.068H89.684
				c-0.762,0-1.379,0.617-1.379,1.379v20.001c0,0.763,0.618,1.38,1.379,1.38h31.727c0.762,0,1.379-0.617,1.379-1.38v-20.001
				C122.79,171.971,122.172,171.354,121.411,171.354z"/>
		</g>
		<g>
			<g>
				<path fill="#91B9E0" d="M174.313,186.619c-0.39,0.012-0.778,0.019-1.165,0.019c-0.388,0-0.779-0.006-1.168-0.019
					c-3.282-0.09-5.896-0.554-7.779-1.215c-0.885-0.299-1.643-0.65-2.228-1.052v3.179v0.224v0.224v0.575
					c1.273,1.328,5.54,2.553,11.175,2.553c5.634,0,9.902-1.225,11.174-2.553v-0.575v-0.224v-0.224v-3.179
					c-0.589,0.405-1.354,0.759-2.246,1.059C180.194,186.069,177.584,186.529,174.313,186.619z"/>
				<path fill="#91B9E0" d="M161.973,178.492v3.179v0.224v0.224v0.575c1.18,1.231,4.932,2.374,9.961,2.534
					c0.052,0.002,0.104,0.002,0.156,0.004c0.146,0.004,0.291,0.008,0.438,0.01c0.205,0.004,0.411,0.005,0.619,0.005
					c0.208,0,0.414-0.001,0.618-0.004c0.147-0.003,0.293-0.007,0.439-0.011c0.052-0.001,0.104-0.002,0.156-0.004
					c5.03-0.16,8.782-1.303,9.961-2.533v-0.576v-0.224v-0.224v-3.179c-2.176,1.494-6.774,2.285-11.174,2.285
					S164.148,179.986,161.973,178.492z"/>
				<path fill="#91B9E0" d="M184.261,175.655c-0.501-1.923-4.358-3.817-11.114-3.817c-6.739,0-10.592,1.886-11.109,3.804
					c-0.038,0.065-0.066,0.137-0.066,0.219v0.224v0.807c1.268,1.324,5.506,2.545,11.175,2.545c5.668,0,9.907-1.221,11.174-2.545
					v-0.807v-0.224C184.322,175.785,184.297,175.718,184.261,175.655z"/>
				<path fill="#91B9E0" d="M161.973,190.163v3.666c0,0.072,0.02,0.141,0.053,0.201c0.528,2.188,5.251,3.821,11.122,3.821
					c5.858,0,10.573-1.626,11.119-3.806c0.036-0.064,0.056-0.138,0.056-0.217v-3.665c-1.849,1.301-5.657,2.324-11.174,2.324
					C167.629,192.488,163.821,191.465,161.973,190.163z"/>
			</g>
		</g>
	</g>
</g>
</svg>
